<svg width="23" height="17" viewBox="0 0 23 17" fill="none" xmlns="http://www.w3.org/2000/svg">
<path d="M11.21 11.4742C10.534 11.5052 9.989 11.2603 9.495 10.7943C9.045 10.3713 8.49 9.85125 7.829 9.23425C7.801 9.20825 7.771 9.18325 7.739 9.15925C7.717 9.14325 7.696 9.14425 7.677 9.16225C7.594 9.23725 7.515 9.32225 7.435 9.39925C5.712 11.0453 4.006 12.6793 2.315 14.3013C2.101 14.5063 1.911 14.6853 1.744 14.8383C1.65 14.9243 1.561 15.0093 1.477 15.0933C1.455 15.1163 1.454 15.1393 1.476 15.1623C1.61 15.3043 1.727 15.2952 1.943 15.2952C8.121 15.2952 14.299 15.2952 20.478 15.2952C20.63 15.2952 20.715 15.2802 20.796 15.1572C20.815 15.1282 20.812 15.1023 20.787 15.0793C18.796 13.1963 16.806 11.3103 14.817 9.42325C14.706 9.31825 14.612 9.22325 14.535 9.13825C14.51 9.11125 14.485 9.11025 14.458 9.13525C13.897 9.65425 13.34 10.1803 12.784 10.7023C12.571 10.9033 12.406 11.0413 12.289 11.1163C11.944 11.3383 11.585 11.4572 11.21 11.4742ZM1.41 13.2542C1.548 13.1162 1.698 12.9713 1.858 12.8183C3.301 11.4463 4.725 10.0852 6.132 8.73625C6.292 8.58225 6.46 8.42425 6.637 8.25925C6.672 8.22725 6.671 8.19525 6.636 8.16425C6.569 8.10325 6.504 8.04325 6.443 7.98625C4.743 6.39425 3.143 4.90325 1.642 3.51325C1.552 3.43025 1.466 3.35025 1.384 3.27325C1.38 3.27025 1.379 3.27025 1.379 3.27325L1.373 13.2393C1.372 13.2743 1.385 13.2792 1.41 13.2542ZM20.893 3.21025C20.893 3.20525 20.891 3.20125 20.886 3.19825C20.881 3.19425 20.877 3.19425 20.872 3.19825C20.719 3.31625 20.596 3.45525 20.45 3.59025C18.873 5.05525 17.255 6.56425 15.597 8.11825C15.581 8.13325 15.565 8.14625 15.547 8.15825C15.522 8.17525 15.521 8.19325 15.544 8.21325C15.599 8.26025 15.648 8.30325 15.691 8.34325C16.588 9.18325 17.553 10.0933 18.587 11.0723C18.787 11.2613 18.962 11.4303 19.114 11.5793C19.278 11.7403 19.453 11.8933 19.617 12.0543C19.745 12.1803 19.871 12.2992 19.994 12.4102C20.198 12.5952 20.385 12.7902 20.591 12.9762C20.688 13.0642 20.782 13.1552 20.874 13.2502C20.878 13.2542 20.882 13.2563 20.888 13.2553C20.896 13.2533 20.901 13.2502 20.901 13.2432C20.901 9.90425 20.901 6.56725 20.9 3.23125C20.9 3.22725 20.899 3.22325 20.897 3.21925C20.894 3.21525 20.893 3.21225 20.893 3.21025ZM10.809 10.0312C11.092 10.1383 11.424 10.0693 11.644 9.86425C13.586 8.05625 15.516 6.26725 17.436 4.49625C18.545 3.47325 19.644 2.45525 20.733 1.44325C20.75 1.42725 20.75 1.41125 20.735 1.39425C20.71 1.36825 20.673 1.35525 20.624 1.35525C14.266 1.35325 7.986 1.35225 1.782 1.35225C1.66 1.35225 1.591 1.38025 1.509 1.45925C1.497 1.47025 1.497 1.48125 1.51 1.49225C1.576 1.55025 1.643 1.61025 1.709 1.67025C2.449 2.34625 3.279 3.11325 4.199 3.97125C6.174 5.81325 8.09 7.59425 9.948 9.31425C10.113 9.46725 10.282 9.62325 10.456 9.78325C10.595 9.91325 10.713 9.99525 10.809 10.0312ZM20.541 16.6863H1.728C1.585 16.6683 1.481 16.6513 1.416 16.6383C0.813 16.5113 0.313 16.0392 0.112 15.4762C0.052 15.3072 0.03 15.1312 0 14.9522V1.70425C0.032 1.61925 0.03 1.52325 0.047 1.45125C0.071 1.35225 0.095 1.24125 0.135 1.14925C0.389 0.55525 0.832 0.18725 1.465 0.0472501C1.523 0.0342501 1.582 0.0262501 1.64 0.0242501C1.719 0.0212501 1.795 0.00225 1.875 0.00225C8.004 -0.00075 14.198 -0.00075 20.458 0.00225C20.506 0.00225 20.553 0.00524999 20.6 0.01225C20.647 0.01925 20.694 0.02625 20.741 0.03225C20.905 0.05425 21.05 0.0932501 21.175 0.14925C21.774 0.41625 22.216 0.97925 22.26 1.64925C22.267 1.75825 22.278 1.86325 22.277 1.97125C22.252 5.29825 22.266 8.62725 22.266 12.1883C22.266 12.9513 22.286 13.7533 22.275 14.5573C22.272 14.8053 22.266 14.9722 22.258 15.0602C22.208 15.5862 21.96 16.0162 21.513 16.3472C21.3 16.5052 21.062 16.6053 20.799 16.6483C20.715 16.6633 20.628 16.6753 20.541 16.6863Z" fill="#190905"/>
</svg>
