<svg width="56" height="56" viewBox="0 0 56 56" fill="none" xmlns="http://www.w3.org/2000/svg">
<circle cx="27.6797" cy="27.6797" r="27.1797" fill="#190905" stroke="#190905"/>
<path d="M27.7058 19.7606C27.9361 19.3294 28.0514 19.1138 28.2077 19.0449C28.3438 18.985 28.502 18.985 28.638 19.0449C28.7945 19.1138 28.9096 19.3294 29.1401 19.7606L31.3261 23.8512C31.3941 23.9785 31.4281 24.0422 31.4777 24.0916C31.5218 24.1353 31.5746 24.1708 31.6332 24.196C31.6995 24.2244 31.7754 24.2347 31.9275 24.2552L36.8173 24.9154C37.3322 24.9849 37.5897 25.0197 37.7088 25.1358C37.8125 25.2369 37.8612 25.3758 37.8415 25.5138C37.8188 25.6725 37.6324 25.8402 37.2597 26.1755L33.7226 29.3576C33.6125 29.4568 33.5573 29.5064 33.5217 29.5654C33.4902 29.6176 33.47 29.675 33.4622 29.7344C33.4534 29.8015 33.4664 29.8715 33.4924 30.0116L34.3271 34.5062C34.415 34.9803 34.459 35.2173 34.3763 35.3579C34.3044 35.4803 34.1765 35.5662 34.0282 35.5916C33.8578 35.6207 33.6274 35.5087 33.1665 35.2849L28.7952 33.1614C28.6589 33.0953 28.5908 33.0623 28.519 33.0492C28.4556 33.0377 28.3902 33.0377 28.3267 33.0492C28.2549 33.0623 28.1868 33.0953 28.0507 33.1614L23.6793 35.2849C23.2184 35.5087 22.988 35.6207 22.8176 35.5916C22.6693 35.5662 22.5414 35.4803 22.4694 35.3579C22.3867 35.2173 22.4308 34.9803 22.5188 34.5062L23.3533 30.0116C23.3793 29.8715 23.3924 29.8015 23.3835 29.7344C23.3758 29.675 23.3555 29.6176 23.3241 29.5654C23.2885 29.5064 23.2334 29.4568 23.1231 29.3576L19.5862 26.1755C19.2134 25.8402 19.027 25.6725 19.0043 25.5138C18.9846 25.3758 19.0333 25.2369 19.137 25.1358C19.2561 25.0197 19.5136 24.9849 20.0285 24.9154L24.9183 24.2552C25.0703 24.2347 25.1464 24.2244 25.2126 24.196C25.2712 24.1708 25.324 24.1353 25.368 24.0916C25.4177 24.0422 25.4517 23.9785 25.5197 23.8512L27.7058 19.7606Z" fill="#190905" stroke="#E8E5D5" stroke-width="2" stroke-linecap="round" stroke-linejoin="round"/>
</svg>
