<svg width="20" height="20" viewBox="0 0 20 20" fill="none" xmlns="http://www.w3.org/2000/svg">
<path d="M19.328 14.366C19.471 14.748 19.554 15.158 19.567 15.587C19.57 15.628 19.57 15.669 19.57 15.711C19.57 17.842 17.842 19.57 15.711 19.57C7.034 19.57 0 12.536 0 3.859C0 1.729 1.728 0 3.859 0C3.901 0 3.942 2.09548e-08 3.983 0.00300002C4.412 0.016 4.823 0.0990001 5.205 0.242L6.654 6.514C6.654 6.517 6.652 6.519 6.649 6.52L3.992 7.714L3.984 7.717C5.203 11.43 8.14 14.366 11.852 15.585L11.855 15.577L13.051 12.919L19.328 14.366Z" fill="#190905"/>
</svg>
