<svg width="22" height="22" viewBox="0 0 22 22" fill="none" xmlns="http://www.w3.org/2000/svg">
<path d="M4.531 0.777C4.282 0.528 3.995 0.337 3.67 0.202C3.345 0.067 3.006 0 2.654 0C2.302 0 1.963 0.067 1.638 0.202C1.313 0.337 1.026 0.528 0.777 0.777C0.528 1.026 0.336 1.313 0.202 1.638C0.067 1.964 0 2.302 0 2.654C0 3.006 0.067 3.344 0.202 3.67C0.337 3.995 0.528 4.282 0.777 4.531C1.026 4.78 1.313 4.972 1.638 5.106C1.963 5.241 2.302 5.308 2.654 5.308C3.006 5.308 3.345 5.241 3.67 5.106C3.995 4.972 4.282 4.78 4.531 4.531C4.78 4.282 4.971 3.995 5.106 3.67C5.241 3.345 5.308 3.006 5.308 2.654C5.308 2.302 5.241 1.963 5.106 1.638C4.971 1.313 4.78 1.026 4.531 0.777Z" fill="#190905"/>
<path d="M4.926 7.265H0.366V21.934H4.926V7.265Z" fill="#190905"/>
<path d="M19.456 7.485C19.456 7.485 14.772 5.382 12.229 9.244C12.229 9.244 12.19 9.269 12.133 9.289V7.265H7.793V21.934H12.32V15.075C12.32 15.075 12.252 13.172 12.754 12.183C12.754 12.183 13.256 10.965 14.833 10.957C14.833 10.957 16.683 10.634 17.213 12.47C17.213 12.47 17.414 13.488 17.414 13.918C17.414 14.348 17.428 21.934 17.428 21.934H21.973V13.531C21.975 13.531 22.305 8.785 19.456 7.485Z" fill="#190905"/>
</svg>
