<svg width="24" height="25" viewBox="0 0 24 25" fill="none" xmlns="http://www.w3.org/2000/svg">
<path d="M5.41923 8.39221H0.404297V24.3845H5.41923V8.39221Z" fill="#E8FD86"/>
<path d="M18.9855 8.04548C18.8007 8.02237 18.6042 8.01081 18.4078 7.99925C15.5999 7.8837 14.0168 9.54764 13.4622 10.2641C13.312 10.4605 13.2426 10.5761 13.2426 10.5761V8.43835H8.44727V24.4307H13.2426H13.4622C13.4622 22.8014 13.4622 21.1837 13.4622 19.5544C13.4622 18.6762 13.4622 17.798 13.4622 16.9198C13.4622 15.8336 13.3813 14.6781 13.9244 13.6844C14.3866 12.8524 15.2186 12.4364 16.1545 12.4364C18.9278 12.4364 18.9855 14.9439 18.9855 15.175C18.9855 15.1865 18.9855 15.1981 18.9855 15.1981V24.5H24.0005V14.0657C24.0005 10.4952 22.1863 8.39213 18.9855 8.04548Z" fill="#E8FD86"/>
<path d="M2.91189 6.32379C4.52008 6.32379 5.82379 5.02009 5.82379 3.41189C5.82379 1.8037 4.52008 0.5 2.91189 0.5C1.30369 0.5 0 1.8037 0 3.41189C0 5.02009 1.30369 6.32379 2.91189 6.32379Z" fill="#E8FD86"/>
</svg>
