<svg width="321" height="48" viewBox="0 0 321 48" fill="none" xmlns="http://www.w3.org/2000/svg">
<g clip-path="url(#clip0_3010_83)">
<path d="M19.1567 1.73548C17.2969 3.46121 15.8555 4.89604 14.8325 6.03345C13.8094 7.17413 12.7112 8.78873 11.5378 10.8838C10.3644 12.9788 9.23353 15.5609 8.14512 18.6267C7.35741 20.8067 6.67429 22.9279 6.09576 25.0001C5.51724 27.069 5.05965 29.1477 4.72626 31.233C4.3896 33.3182 4.22291 35.4525 4.22291 37.6293C4.22291 40.829 4.66743 43.7445 5.55646 46.3755L3.29465 47.307C2.85994 46.2513 2.39908 44.9342 1.91208 43.3621C1.42507 41.7867 0.987089 39.8943 0.5916 37.6816C0.19611 35.4688 0 33.2561 0 31.0467C0 27.0069 0.611211 23.3136 1.83363 19.9602C3.05605 16.6101 4.58245 13.675 6.40954 11.1616C8.23664 8.64819 10.0637 6.53352 11.8908 4.81433C13.7179 3.09514 15.5516 1.50996 17.395 0.0522461L19.1534 1.73548H19.1567Z" fill="#E8FD86"/>
<path d="M34.5909 18.6267C34.5909 19.6497 34.2935 20.5028 33.6986 21.1891C33.1038 21.8755 32.3193 22.2187 31.3486 22.2187C30.6262 22.2187 30.0444 22.016 29.5999 21.614C29.1554 21.212 28.9331 20.6923 28.9331 20.055C28.9331 19.6857 28.9985 19.2412 29.1358 18.7215C29.2861 18.2704 29.3613 17.8586 29.3613 17.4893C29.3613 16.7016 29.0966 16.1688 28.5703 15.8943C28.0408 15.6165 27.5277 15.4792 27.0243 15.4792C25.5502 15.4792 24.1742 16.28 22.9027 17.8782C21.628 19.4798 20.6181 21.3656 19.8728 23.5326C19.1276 25.7028 18.755 27.4841 18.755 28.8732C18.755 30.3995 19.1211 31.3703 19.85 31.7886C20.5788 32.207 21.3273 32.4162 22.0987 32.4162C23.6055 32.4162 24.9815 32.0109 26.2203 31.197C27.459 30.3832 28.5082 29.4484 29.3613 28.3927H32.0774C30.8877 30.1871 29.2208 31.8017 27.0734 33.2431C24.9292 34.6844 22.5301 35.4035 19.8826 35.4035C17.5522 35.4035 15.7512 34.825 14.4765 33.668C13.2018 32.5109 12.5645 30.9454 12.5645 28.968C12.5645 26.6376 13.2345 24.2451 14.5746 21.7905C15.9147 19.3359 17.7745 17.3161 20.1539 15.7309C22.5334 14.1457 25.1645 13.3547 28.0474 13.3547C29.1031 13.3547 30.0281 13.4985 30.8256 13.7829C31.6198 14.0673 32.303 14.4562 32.875 14.953C33.4437 15.4465 33.8718 16.012 34.1562 16.6493C34.4406 17.2866 34.5844 17.9403 34.5844 18.6104L34.5909 18.6267Z" fill="#E8FD86"/>
<path d="M47.5858 16.2636C47.5858 20.2707 46.9778 23.9608 45.7619 27.337C44.5461 30.7133 43.0229 33.6647 41.186 36.1846C39.3524 38.7079 37.558 40.7833 35.8061 42.4175C34.0541 44.0517 32.1748 45.6631 30.1614 47.258L28.4258 45.5487C30.1189 44.006 31.5178 42.6234 32.6225 41.401C33.7273 40.1786 34.8647 38.5216 36.0283 36.4363C37.1919 34.3511 38.3294 31.7559 39.4341 28.6575C40.6729 25.2387 41.6371 21.9801 42.3235 18.8784C43.0099 15.7766 43.353 12.7109 43.353 9.67776C43.353 8.45537 43.2485 7.04342 43.0393 5.44189C42.8301 3.84036 42.4804 2.33689 41.9966 0.928203L44.2584 -0.0032959C44.5101 0.549067 44.8206 1.36617 45.1899 2.44802C45.5593 3.52987 45.9188 4.7686 46.2718 6.16748C46.6248 7.56636 46.9288 9.14501 47.1903 10.9067C47.4485 12.6651 47.5792 14.4497 47.5792 16.2604L47.5858 16.2636Z" fill="#E8FD86"/>
<path d="M58.751 48V9.39019H63.1798L64.0558 13.4561C65.118 12.0147 66.4156 10.8904 67.942 10.0831C69.4684 9.2758 71.1419 8.87378 72.9624 8.87378C74.6425 8.87378 76.231 9.23331 77.7247 9.95563C79.2184 10.6779 80.529 11.6454 81.6632 12.8645C82.7974 14.0836 83.6864 15.5152 84.3401 17.1625C84.9905 18.8098 85.3174 20.5616 85.3174 22.4148C85.3174 24.268 85.0004 25.9415 84.3663 27.5365C83.7322 29.1314 82.8562 30.5303 81.7416 31.7331C80.6271 32.9359 79.323 33.887 77.8292 34.5897C76.3355 35.2924 74.7144 35.6454 72.9624 35.6454C71.2105 35.6454 69.5305 35.2761 68.0205 34.5374C66.5104 33.7987 65.2226 32.743 64.1604 31.3703V48H58.7542H58.751ZM64.1571 22.3102C64.1571 23.4444 64.3532 24.4968 64.7487 25.4773C65.1442 26.4546 65.6933 27.3044 66.396 28.0267C67.0987 28.749 67.9224 29.3145 68.867 29.7263C69.8116 30.1381 70.8314 30.344 71.9296 30.344C73.0278 30.344 74.0574 30.1381 75.0183 29.7263C75.9793 29.3145 76.8127 28.749 77.5155 28.0267C78.2182 27.3044 78.7673 26.4579 79.1628 25.4773C79.5583 24.5001 79.7544 23.4444 79.7544 22.3102C79.7544 21.1761 79.555 20.1139 79.1628 19.117C78.7673 18.1234 78.2182 17.254 77.5155 16.5186C76.8127 15.7799 75.9891 15.2047 75.0445 14.7929C74.0999 14.3811 73.0638 14.1752 71.9296 14.1752C70.7954 14.1752 69.8083 14.3811 68.867 14.7929C67.9224 15.2047 67.0987 15.7799 66.396 16.5186C65.6933 17.2573 65.1442 18.1234 64.7487 19.117C64.3532 20.1139 64.1571 21.1761 64.1571 22.3102Z" fill="#E8FD86"/>
<path d="M102.203 14.2797C101.823 14.2471 101.48 14.2209 101.173 14.2013C100.862 14.185 100.555 14.1752 100.245 14.1752C99.4538 14.1752 98.6562 14.2601 97.8522 14.4334C97.0449 14.6066 96.3258 14.8975 95.6884 15.3093C95.0544 15.7211 94.5314 16.2441 94.1196 16.8781C93.7077 17.5122 93.5018 18.2934 93.5018 19.2216V35.129H88.0957V9.39019H92.5245L93.5018 12.8907V13.4561C93.9136 12.8743 94.3255 12.3743 94.7373 11.9624C95.7309 10.9688 96.9436 10.1942 98.3654 9.64513C99.7904 9.09603 101.327 8.83783 102.974 8.87378L102.203 14.2797Z" fill="#E8FD86"/>
<path d="M103.386 17.3684C103.386 16.1003 103.634 14.94 104.131 13.8941C104.628 12.8482 105.324 11.9559 106.216 11.2172C107.109 10.4786 108.174 9.90333 109.41 9.49151C110.645 9.07969 112.018 8.87378 113.528 8.87378C116.855 8.87378 119.447 9.85104 121.301 11.8088C123.154 13.7666 124.082 16.4925 124.082 19.9929V35.129H119.964L119.088 32.5044C118.091 33.4654 116.882 34.2302 115.46 34.7956C114.035 35.361 112.534 35.6454 110.956 35.6454C108.21 35.6454 106.014 34.9852 104.366 33.6647C102.719 32.3443 101.896 30.5336 101.896 28.2326C101.896 22.7417 107.06 19.823 117.391 19.4798H118.679V19.2739C118.679 15.5348 116.963 13.662 113.531 13.662C112.09 13.662 110.939 14.0052 110.083 14.6916C109.223 15.3779 108.795 16.2702 108.795 17.3684H103.389H103.386ZM118.676 23.2385L116.875 23.2908C110.593 23.428 107.455 25.1276 107.455 28.3862C107.455 29.5204 107.919 30.4715 108.844 31.2428C109.769 32.0142 110.972 32.3999 112.45 32.3999C113.306 32.3999 114.113 32.2528 114.868 31.9619C115.623 31.671 116.283 31.2853 116.849 30.8049C117.414 30.3244 117.862 29.759 118.189 29.1053C118.516 28.4549 118.679 27.7489 118.679 26.9939V23.2352L118.676 23.2385Z" fill="#E8FD86"/>
<path d="M149.308 9.39019H153.737V33.5863C153.737 38.185 152.466 41.7377 149.926 44.2413C147.387 46.7449 143.817 48 139.219 48C137.123 48 135.143 47.7255 133.273 47.1764C131.404 46.6273 129.557 45.7514 127.74 44.5518L130.057 40.28C131.603 41.3782 133.11 42.1757 134.587 42.6725C136.061 43.1693 137.539 43.4177 139.016 43.4177C140.493 43.4177 141.693 43.202 142.827 42.7738C143.961 42.3457 144.938 41.7279 145.762 40.9206C146.586 40.1133 147.22 39.1263 147.668 37.9594C148.112 36.7926 148.338 35.4722 148.338 33.9948V31.1121C147.272 32.5535 145.961 33.668 144.399 34.459C142.837 35.2467 141.111 35.6421 139.225 35.6421C137.473 35.6421 135.852 35.2989 134.358 34.6126C132.865 33.9262 131.56 32.9914 130.446 31.8083C129.331 30.6251 128.455 29.2164 127.821 27.5855C127.187 25.9545 126.87 24.2125 126.87 22.3593C126.87 20.5061 127.197 18.7052 127.847 17.0579C128.498 15.4106 129.384 13.9856 130.498 12.7861C131.613 11.5866 132.933 10.6322 134.463 9.92948C135.989 9.22677 137.63 8.87378 139.379 8.87378C141.265 8.87378 142.984 9.26926 144.527 10.0569C146.073 10.8479 147.373 11.9624 148.439 13.4038L149.315 9.38692L149.308 9.39019ZM148.328 22.2089C148.328 21.0748 148.122 20.0224 147.71 19.0418C147.298 18.0613 146.739 17.2148 146.037 16.4925C145.334 15.7701 144.5 15.2047 143.54 14.7929C142.579 14.3811 141.533 14.1752 140.398 14.1752C139.264 14.1752 138.212 14.3811 137.231 14.7929C136.254 15.2047 135.411 15.7701 134.708 16.4925C134.005 17.2148 133.446 18.0613 133.035 19.0418C132.623 20.0191 132.417 21.0748 132.417 22.2089C132.417 23.3431 132.623 24.4053 133.035 25.4022C133.446 26.399 134.005 27.2652 134.708 28.0006C135.411 28.7392 136.254 29.3145 137.231 29.7263C138.209 30.1381 139.264 30.344 140.398 30.344C141.533 30.344 142.579 30.1381 143.54 29.7263C144.5 29.3145 145.334 28.749 146.037 28.0267C146.739 27.3044 147.298 26.4481 147.71 25.4512C148.122 24.4576 148.328 23.3758 148.328 22.2089Z" fill="#E8FD86"/>
<path d="M195.179 35.129V19.6334C195.179 17.7475 194.588 16.28 193.404 15.2309C192.221 14.185 190.633 13.662 188.642 13.662C186.547 13.662 184.942 14.185 183.828 15.2309C182.713 16.2767 182.154 17.6593 182.154 19.3752V35.129H176.748V19.6334C176.748 17.7475 176.156 16.28 174.973 15.2309C173.79 14.185 172.185 13.662 170.159 13.662C168.132 13.662 166.459 14.185 165.344 15.2309C164.23 16.2767 163.671 17.6593 163.671 19.3752V35.129H158.265V9.39019H162.693L163.671 11.8088C164.563 10.8152 165.635 10.0766 166.887 9.5961C168.139 9.11564 169.623 8.87378 171.339 8.87378C173.502 8.87378 175.372 9.25292 176.951 10.0079C178.529 10.7629 179.765 11.8611 180.657 13.3025C181.549 11.8971 182.759 10.8054 184.285 10.0341C185.812 9.26272 187.622 8.87705 189.717 8.87705C191.329 8.87705 192.806 9.11891 194.146 9.59937C195.486 10.0798 196.627 10.7564 197.568 11.6323C198.513 12.5083 199.248 13.564 199.781 14.7994C200.314 16.0349 200.579 17.424 200.579 18.9699V35.1355H195.173L195.179 35.129Z" fill="#E8FD86"/>
<path d="M204.651 17.3684C204.651 16.1003 204.899 14.94 205.396 13.8941C205.893 12.8482 206.589 11.9559 207.481 11.2172C208.373 10.4786 209.439 9.90333 210.674 9.49151C211.91 9.07969 213.283 8.87378 214.793 8.87378C218.12 8.87378 220.712 9.85104 222.565 11.8088C224.419 13.7666 225.347 16.4925 225.347 19.9929V35.129H221.228L220.352 32.5044C219.356 33.4654 218.146 34.2302 216.724 34.7956C215.299 35.361 213.799 35.6454 212.22 35.6454C209.475 35.6454 207.278 34.9852 205.631 33.6647C203.984 32.3443 203.16 30.5336 203.16 28.2326C203.16 22.7417 208.324 19.823 218.656 19.4798H219.944V19.2739C219.944 15.5348 218.228 13.662 214.796 13.662C213.355 13.662 212.204 14.0052 211.348 14.6916C210.488 15.3779 210.06 16.2702 210.06 17.3684H204.654H204.651ZM219.941 23.2385L218.14 23.2908C211.858 23.428 208.72 25.1276 208.72 28.3862C208.72 29.5204 209.184 30.4715 210.109 31.2428C211.034 32.0142 212.237 32.3999 213.714 32.3999C214.571 32.3999 215.378 32.2528 216.133 31.9619C216.888 31.671 217.548 31.2853 218.114 30.8049C218.679 30.3244 219.127 29.759 219.454 29.1053C219.781 28.4549 219.944 27.7489 219.944 26.9939V23.2352L219.941 23.2385Z" fill="#E8FD86"/>
<path d="M244.125 17.9044C244.442 17.9044 244.753 17.8782 245.05 17.8259C245.347 17.7736 245.629 17.6854 245.887 17.5579C246.148 17.4337 246.384 17.2703 246.596 17.0676C246.809 16.865 246.982 16.6166 247.116 16.3159L248.806 16.329C248.672 16.8487 248.446 17.2932 248.126 17.6658C247.809 18.0351 247.433 18.3391 247.005 18.5744C246.576 18.8097 246.112 18.9862 245.609 19.1006C245.109 19.215 244.612 19.2738 244.122 19.2738C243.448 19.2738 242.808 19.1823 242.2 18.9993C241.592 18.8162 241.066 18.5352 240.618 18.1528C240.17 17.7736 239.814 17.2899 239.549 16.7016C239.284 16.1133 239.15 15.4106 239.15 14.5934C239.15 13.7763 239.281 13.0246 239.549 12.433C239.814 11.8414 240.17 11.3577 240.618 10.9818C241.066 10.606 241.592 10.3314 242.2 10.1582C242.808 9.98498 243.448 9.89673 244.122 9.89673C244.71 9.89673 245.272 9.96537 245.812 10.1059C246.351 10.2464 246.831 10.4524 247.256 10.7269C247.681 11.0015 248.037 11.3446 248.325 11.7597C248.613 12.1748 248.806 12.6553 248.904 13.2044H247.256C247.142 12.8481 246.985 12.5474 246.786 12.3023C246.59 12.0572 246.351 11.8578 246.076 11.7042C245.802 11.5505 245.501 11.4394 245.174 11.3708C244.847 11.3021 244.494 11.2695 244.119 11.2695C243.648 11.2695 243.203 11.325 242.788 11.4362C242.373 11.5473 242.017 11.7336 241.719 11.9918C241.422 12.2533 241.183 12.5932 241.01 13.0181C240.837 13.443 240.749 13.9659 240.749 14.5934C240.749 15.221 240.837 15.6982 241.01 16.1165C241.183 16.5349 241.419 16.8781 241.719 17.1428C242.017 17.4076 242.373 17.6004 242.788 17.7213C243.203 17.8423 243.645 17.9011 244.119 17.9011L244.125 17.9044Z" fill="#E8FD86"/>
<path d="M249.672 15.6786C249.672 14.4758 250.005 13.5803 250.675 12.992C251.345 12.4037 252.247 12.1095 253.385 12.1095C254.522 12.1095 255.408 12.4037 256.072 12.992C256.735 13.5803 257.069 14.4758 257.069 15.6786C257.069 16.3127 256.974 16.8585 256.787 17.3096C256.601 17.7639 256.343 18.1299 256.016 18.4143C255.689 18.6986 255.297 18.9078 254.846 19.0418C254.392 19.1758 253.908 19.2445 253.388 19.2445C252.868 19.2445 252.381 19.1758 251.93 19.0418C251.476 18.9078 251.084 18.6986 250.754 18.4143C250.42 18.1299 250.159 17.7606 249.966 17.3096C249.773 16.8585 249.678 16.3127 249.678 15.6786H249.672ZM253.385 17.9469C253.712 17.9469 254.012 17.9077 254.28 17.8325C254.548 17.7541 254.777 17.6266 254.967 17.4501C255.153 17.2736 255.3 17.0383 255.402 16.7507C255.503 16.463 255.552 16.1068 255.552 15.6819C255.552 15.257 255.503 14.8877 255.402 14.5968C255.3 14.3091 255.156 14.0771 254.967 13.9039C254.777 13.7306 254.552 13.6064 254.28 13.528C254.009 13.4495 253.712 13.4136 253.385 13.4136C253.058 13.4136 252.761 13.4528 252.496 13.528C252.231 13.6064 252.002 13.7306 251.809 13.9039C251.617 14.0771 251.466 14.3091 251.362 14.5968C251.257 14.8844 251.202 15.2472 251.202 15.6819C251.202 16.1166 251.254 16.463 251.362 16.7507C251.466 17.0383 251.617 17.2736 251.809 17.4501C252.002 17.6299 252.231 17.7573 252.496 17.8325C252.761 17.9109 253.058 17.9469 253.385 17.9469Z" fill="#E8FD86"/>
<path d="M258.585 19.1758V12.1847H260.088V13.9464C260.183 13.7339 260.304 13.5247 260.441 13.3188C260.582 13.1129 260.745 12.9233 260.932 12.7567C261.121 12.5867 261.33 12.4462 261.559 12.3318C261.791 12.2174 262.046 12.1487 262.324 12.1291C262.586 12.0997 262.847 12.116 263.112 12.1716C263.377 12.2272 263.625 12.3285 263.857 12.469C264.089 12.6096 264.295 12.7926 264.478 13.0181C264.661 13.2436 264.802 13.5117 264.896 13.8189C265.07 13.492 265.249 13.2208 265.432 13.0018C265.616 12.7861 265.808 12.6128 266.011 12.4821C266.214 12.3514 266.429 12.2566 266.661 12.201C266.893 12.1422 267.139 12.1128 267.397 12.1128C267.868 12.103 268.279 12.1683 268.632 12.3089C268.985 12.4494 269.276 12.6521 269.515 12.9233C269.75 13.1946 269.93 13.5149 270.051 13.8908C270.172 14.2667 270.231 14.6916 270.231 15.1622V19.1791H268.685V15.306C268.685 14.7667 268.564 14.3222 268.325 13.9692C268.083 13.6162 267.671 13.443 267.083 13.443C266.429 13.443 265.949 13.6064 265.645 13.9333C265.341 14.2601 265.191 14.734 265.191 15.3485V19.1758H263.645V15.3028C263.645 15.0347 263.615 14.7863 263.56 14.5576C263.501 14.332 263.409 14.1327 263.279 13.966C263.148 13.796 262.981 13.6685 262.778 13.577C262.576 13.4855 262.327 13.4398 262.027 13.4398C261.383 13.4398 260.906 13.6424 260.595 14.0477C260.288 14.453 260.131 14.9563 260.131 15.5642V19.1758H258.585Z" fill="#E8FD86"/>
<path d="M272.122 22.1664V12.1683H273.626V13.7992C273.714 13.5966 273.838 13.3939 274.002 13.1913C274.165 12.9887 274.355 12.8089 274.564 12.6487C274.776 12.4886 275.005 12.3611 275.257 12.2663C275.509 12.1716 275.764 12.116 276.022 12.1062C276.512 12.0866 276.973 12.1618 277.401 12.3317C277.829 12.5017 278.199 12.7403 278.506 13.0475C278.813 13.3547 279.058 13.7339 279.235 14.1816C279.411 14.6294 279.503 15.1295 279.503 15.6786C279.503 16.1983 279.424 16.6754 279.264 17.1101C279.104 17.5448 278.882 17.9174 278.591 18.2312C278.303 18.545 277.95 18.7901 277.535 18.9666C277.12 19.1464 276.659 19.2379 276.149 19.2477C275.878 19.2575 275.613 19.215 275.355 19.117C275.097 19.0189 274.855 18.8947 274.633 18.7411C274.41 18.5875 274.214 18.411 274.048 18.2149C273.878 18.0188 273.75 17.8227 273.665 17.6298V22.1664H272.119H272.122ZM275.793 17.9469C276.12 17.9469 276.417 17.888 276.682 17.7671C276.947 17.6462 277.172 17.486 277.362 17.2834C277.551 17.0807 277.695 16.8421 277.797 16.5676C277.898 16.293 277.947 15.9956 277.947 15.6786C277.947 15.3615 277.898 15.0608 277.797 14.783C277.695 14.5052 277.551 14.2633 277.362 14.0607C277.176 13.8581 276.947 13.7012 276.682 13.5835C276.417 13.4691 276.12 13.4103 275.793 13.4103C275.466 13.4103 275.185 13.4691 274.92 13.5901C274.656 13.711 274.43 13.8711 274.24 14.0738C274.054 14.2764 273.907 14.515 273.806 14.7896C273.704 15.0641 273.655 15.3615 273.655 15.6786C273.655 15.9956 273.704 16.293 273.806 16.5676C273.907 16.8421 274.051 17.0807 274.24 17.2834C274.43 17.486 274.652 17.6462 274.914 17.7671C275.175 17.888 275.466 17.9469 275.796 17.9469H275.793Z" fill="#E8FD86"/>
<path d="M281.065 19.1759V8.84766H282.611V19.1759H281.065Z" fill="#E8FD86"/>
<path d="M284.448 10.508C284.448 10.2857 284.536 10.0798 284.716 9.88699C284.893 9.69415 285.138 9.59937 285.445 9.59937C285.752 9.59937 285.984 9.68761 286.167 9.86084C286.351 10.0341 286.442 10.24 286.442 10.4818C286.442 10.7237 286.357 10.9394 286.184 11.1323C286.011 11.3251 285.765 11.4199 285.448 11.4199C285.131 11.4199 284.896 11.3284 284.72 11.1453C284.543 10.9623 284.452 10.7498 284.452 10.5113L284.448 10.508ZM284.664 19.1758V12.1847H286.21V19.1758H284.664Z" fill="#E8FD86"/>
<path d="M294.271 19.1759C293.885 19.1759 293.555 19.0713 293.28 18.8588C293.006 18.6464 292.868 18.3228 292.868 17.8914C292.705 18.3522 292.424 18.7052 292.022 18.9471C291.623 19.1889 291.175 19.3262 290.685 19.3654C290.348 19.385 290.008 19.3589 289.665 19.287C289.322 19.2151 289.012 19.0942 288.734 18.9275C288.456 18.7575 288.227 18.5418 288.047 18.277C287.868 18.0123 287.77 17.7018 287.75 17.3455C287.73 16.8357 287.812 16.4271 287.995 16.1166C288.178 15.8094 288.42 15.5708 288.717 15.4008C289.015 15.2309 289.355 15.1198 289.727 15.0609C290.103 15.0021 290.469 14.9727 290.826 14.9727H292.862V14.1915C292.862 13.8549 292.692 13.6097 292.355 13.4561C292.019 13.3025 291.61 13.2241 291.126 13.2241C290.672 13.2143 290.29 13.296 289.969 13.4692C289.652 13.6424 289.492 13.9039 289.492 14.2504H288.09C288.09 13.8353 288.172 13.4855 288.335 13.2045C288.498 12.9201 288.721 12.6913 288.998 12.5181C289.276 12.3449 289.6 12.2207 289.966 12.1422C290.332 12.0638 290.718 12.0278 291.123 12.0278C291.692 12.0278 292.182 12.0867 292.597 12.2011C293.012 12.3155 293.352 12.4691 293.617 12.6554C293.882 12.8417 294.078 13.0639 294.202 13.3123C294.326 13.564 294.392 13.8189 294.392 14.0771V17.5743C294.392 17.7181 294.431 17.8358 294.506 17.9273C294.584 18.0188 294.692 18.0646 294.839 18.0646H294.97V19.1759H294.261H294.271ZM289.26 17.0383C289.24 17.241 289.266 17.4175 289.338 17.5743C289.41 17.728 289.515 17.8554 289.649 17.9567C289.783 18.0581 289.946 18.1332 290.133 18.1823C290.322 18.2313 290.515 18.2542 290.718 18.2542C290.93 18.2542 291.146 18.228 291.368 18.1757C291.59 18.1234 291.8 18.0385 291.996 17.9241C292.192 17.8097 292.368 17.6626 292.522 17.4894C292.676 17.3161 292.787 17.12 292.855 16.8978V15.9009H290.904C290.75 15.9009 290.58 15.914 290.397 15.9369C290.214 15.9597 290.044 16.012 289.884 16.0872C289.724 16.1657 289.587 16.2768 289.466 16.4271C289.345 16.5775 289.276 16.7801 289.257 17.0416L289.26 17.0383Z" fill="#E8FD86"/>
<path d="M296.411 19.1758V12.1683H297.915V14.0019C298.029 13.6947 298.186 13.4234 298.379 13.1848C298.572 12.9495 298.778 12.7501 299 12.5932C299.222 12.4331 299.454 12.3154 299.699 12.2337C299.944 12.152 300.183 12.1095 300.415 12.1095C300.935 12.0997 301.373 12.1749 301.729 12.335C302.085 12.4952 302.373 12.7109 302.589 12.9854C302.804 13.26 302.961 13.5835 303.059 13.9594C303.154 14.3353 303.203 14.734 303.203 15.1589V19.1758H301.657V15.3027C301.657 14.7242 301.523 14.2699 301.252 13.9365C300.981 13.6032 300.552 13.4365 299.967 13.4365C299.304 13.4365 298.8 13.6293 298.464 14.015C298.127 14.4007 297.957 14.9171 297.957 15.5609V19.1725H296.411V19.1758Z" fill="#E8FD86"/>
<path d="M308.315 17.9469C308.557 17.9469 308.786 17.9273 309.008 17.8881C309.23 17.8489 309.433 17.7803 309.616 17.6789C309.799 17.5776 309.956 17.4436 310.087 17.2737C310.218 17.1037 310.312 16.8945 310.368 16.6461L311.943 16.633C311.858 17.1135 311.705 17.5221 311.489 17.8554C311.273 18.1888 311.002 18.4568 310.678 18.666C310.355 18.8719 309.995 19.0223 309.593 19.1138C309.194 19.2053 308.766 19.251 308.315 19.251C307.796 19.251 307.309 19.1824 306.857 19.0484C306.403 18.9144 306.011 18.7052 305.681 18.4209C305.347 18.1365 305.086 17.7672 304.893 17.3161C304.7 16.8651 304.605 16.3193 304.605 15.6852C304.605 14.4824 304.939 13.5869 305.609 12.9986C306.279 12.4102 307.181 12.1161 308.318 12.1161C309.456 12.1161 310.27 12.358 310.855 12.8449C311.437 13.3319 311.809 14.0216 311.976 14.9171L310.443 14.9302C310.338 14.3517 310.097 13.9562 309.721 13.7372C309.345 13.5182 308.877 13.4137 308.318 13.4137C307.992 13.4137 307.694 13.4529 307.429 13.528C307.165 13.6065 306.936 13.7307 306.743 13.9039C306.55 14.0771 306.4 14.3092 306.295 14.5968C306.191 14.8844 306.135 15.2472 306.135 15.6819C306.135 16.1166 306.187 16.4631 306.295 16.7507C306.403 17.0383 306.55 17.2737 306.743 17.4501C306.936 17.6299 307.165 17.7574 307.429 17.8326C307.694 17.911 307.992 17.9469 308.318 17.9469H308.315Z" fill="#E8FD86"/>
<path d="M319.915 16.8782C319.866 17.3325 319.745 17.7051 319.552 18.0058C319.359 18.3032 319.111 18.5418 318.807 18.715C318.503 18.8882 318.153 19.0092 317.751 19.0778C317.352 19.1464 316.921 19.1791 316.457 19.1791C315.908 19.1791 315.414 19.1007 314.976 18.9405C314.538 18.7804 314.166 18.5549 313.855 18.2607C313.548 17.9665 313.309 17.607 313.139 17.1756C312.969 16.7474 312.888 16.2637 312.888 15.7244C312.888 15.2897 312.95 14.8583 313.077 14.4236C313.201 13.9889 313.411 13.6032 313.698 13.26C313.986 12.9168 314.372 12.639 314.846 12.4233C315.323 12.2076 315.908 12.0997 316.601 12.0997C317.179 12.0997 317.686 12.1945 318.117 12.3808C318.552 12.5671 318.912 12.8351 319.202 13.1816C319.49 13.528 319.703 13.9431 319.837 14.4236C319.971 14.904 320.029 15.4401 320.01 16.0284H314.391C314.401 16.6069 314.607 17.071 315.006 17.424C315.404 17.777 315.924 17.9502 316.558 17.9502C316.973 17.9502 317.303 17.911 317.549 17.8358C317.794 17.7574 317.983 17.6658 318.121 17.5547C318.255 17.4436 318.349 17.3259 318.402 17.2017C318.454 17.0775 318.496 16.9697 318.526 16.8847H319.912L319.915 16.8782ZM318.572 15.2015C318.552 14.9596 318.503 14.7308 318.421 14.5151C318.34 14.2994 318.215 14.1065 318.052 13.9366C317.889 13.7666 317.683 13.6359 317.431 13.5378C317.179 13.4431 316.872 13.394 316.506 13.394C316.199 13.394 315.918 13.4431 315.669 13.5444C315.418 13.6457 315.202 13.7797 315.019 13.9497C314.836 14.1196 314.692 14.3092 314.584 14.5282C314.476 14.7472 314.421 14.9694 314.411 15.2015H318.572Z" fill="#E8FD86"/>
<path d="M244.89 34.91C244.573 35.1519 244.226 35.3349 243.851 35.4657C243.475 35.5964 243.069 35.6618 242.638 35.6618C241.491 35.6618 240.621 35.4101 240.03 34.9035C239.438 34.3969 239.141 33.7105 239.141 32.8444C239.141 32.5176 239.193 32.2234 239.301 31.9619C239.409 31.7005 239.552 31.4684 239.735 31.2625C239.919 31.0566 240.131 30.867 240.37 30.7003C240.611 30.5304 240.866 30.3767 241.134 30.2297C240.922 29.9518 240.726 29.6479 240.549 29.321C240.37 28.9942 240.281 28.6478 240.281 28.2817C240.281 27.945 240.347 27.6476 240.477 27.3927C240.608 27.1377 240.785 26.922 241.004 26.7423C241.226 26.5658 241.484 26.4285 241.775 26.337C242.069 26.2455 242.38 26.1997 242.707 26.1997C243.014 26.1997 243.308 26.2422 243.589 26.3304C243.867 26.4187 244.112 26.5396 244.318 26.6998C244.524 26.8599 244.691 27.0528 244.815 27.2783C244.939 27.5038 245.001 27.7587 245.001 28.0366C245.001 28.3536 244.942 28.6314 244.821 28.8667C244.7 29.1021 244.54 29.3145 244.338 29.5041C244.135 29.6904 243.906 29.8603 243.651 30.0107C243.396 30.161 243.135 30.3081 242.863 30.4519L244.929 33.0078C245.161 32.4979 245.276 31.9096 245.276 31.2461H246.518C246.537 32.3247 246.282 33.253 245.753 34.0341L246.965 35.5212H245.361L244.883 34.9133L244.89 34.91ZM241.785 31.0239C241.419 31.2461 241.115 31.5043 240.876 31.7952C240.634 32.0894 240.517 32.462 240.517 32.9163C240.517 33.1288 240.559 33.3347 240.647 33.5373C240.736 33.7399 240.863 33.9164 241.036 34.0635C241.21 34.2139 241.425 34.3348 241.68 34.423C241.935 34.5146 242.236 34.5603 242.582 34.5603C243.2 34.5603 243.73 34.3838 244.171 34.0243L241.788 31.0206L241.785 31.0239ZM242.246 29.6675C242.448 29.5629 242.641 29.4551 242.824 29.3505C243.007 29.2459 243.167 29.1315 243.308 29.0105C243.449 28.8896 243.56 28.7589 243.641 28.6118C243.723 28.468 243.766 28.3046 243.766 28.1215C243.766 27.8699 243.651 27.677 243.419 27.5365C243.187 27.3959 242.932 27.3273 242.654 27.3273C242.383 27.3175 242.144 27.3829 241.932 27.5234C241.719 27.664 241.615 27.8829 241.615 28.1804C241.615 28.4418 241.684 28.7066 241.818 28.9746C241.952 29.2459 242.095 29.4747 242.252 29.6675H242.246Z" fill="#E8FD86"/>
<path d="M252.041 35.518V26.3435H256.463C257.176 26.3435 257.813 26.4481 258.379 26.6605C258.941 26.873 259.421 27.177 259.817 27.579C260.212 27.9777 260.513 28.4614 260.719 29.0236C260.925 29.5858 261.029 30.2264 261.029 30.9389C261.029 31.6514 260.925 32.2757 260.712 32.8379C260.5 33.4 260.196 33.8837 259.794 34.2825C259.395 34.6812 258.911 34.9885 258.343 35.2009C257.774 35.4134 257.133 35.518 256.421 35.518H252.044H252.041ZM253.646 34.1746H256.349C257.313 34.1746 258.065 33.9034 258.611 33.3575C259.153 32.815 259.428 32.0077 259.428 30.9389C259.428 29.8701 259.15 29.0596 258.591 28.5105C258.032 27.9614 257.277 27.6868 256.323 27.6868H253.649V34.1746H253.646Z" fill="#E8FD86"/>
<path d="M268.946 33.2202C268.897 33.6745 268.776 34.0471 268.583 34.3478C268.391 34.6452 268.142 34.8838 267.838 35.0571C267.534 35.2303 267.184 35.3512 266.782 35.4198C266.384 35.4885 265.952 35.5212 265.488 35.5212C264.939 35.5212 264.445 35.4427 264.008 35.2826C263.57 35.1224 263.197 34.8969 262.886 34.6027C262.579 34.3086 262.341 33.9491 262.171 33.5176C262.001 33.0895 261.919 32.6057 261.919 32.0665C261.919 31.6318 261.981 31.2003 262.109 30.7656C262.233 30.3309 262.442 29.9452 262.73 29.6021C263.017 29.2589 263.403 28.9811 263.877 28.7653C264.354 28.5496 264.939 28.4418 265.632 28.4418C266.21 28.4418 266.717 28.5366 267.149 28.7229C267.583 28.9092 267.943 29.1772 268.234 29.5236C268.521 29.8701 268.734 30.2852 268.868 30.7656C269.002 31.2461 269.061 31.7821 269.041 32.3704H263.422C263.432 32.9489 263.638 33.413 264.037 33.766C264.436 34.119 264.955 34.2922 265.589 34.2922C266.005 34.2922 266.335 34.253 266.58 34.1778C266.825 34.0994 267.015 34.0079 267.152 33.8968C267.286 33.7856 267.381 33.668 267.433 33.5438C267.485 33.4196 267.528 33.3117 267.557 33.2267H268.943L268.946 33.2202ZM267.603 31.5435C267.583 31.3016 267.534 31.0729 267.453 30.8571C267.371 30.6414 267.247 30.4486 267.083 30.2786C266.92 30.1087 266.714 29.9779 266.462 29.8799C266.21 29.7851 265.903 29.7361 265.537 29.7361C265.23 29.7361 264.949 29.7851 264.7 29.8864C264.449 29.9877 264.233 30.1217 264.05 30.2917C263.867 30.4617 263.723 30.6512 263.615 30.8702C263.507 31.0892 263.452 31.3114 263.442 31.5435H267.603Z" fill="#E8FD86"/>
<path d="M275.316 30.5466C275.306 30.3244 275.231 30.1479 275.094 30.0204C274.953 29.8897 274.787 29.7949 274.587 29.7328C274.391 29.6707 274.182 29.6282 273.966 29.6086C273.751 29.589 273.558 29.5792 273.394 29.5792C273.182 29.5792 272.979 29.5988 272.786 29.638C272.594 29.6772 272.424 29.7328 272.273 29.8112C272.123 29.8897 272.005 29.9845 271.92 30.0989C271.835 30.2133 271.79 30.3505 271.79 30.5042V30.563C271.799 30.8147 271.93 30.9944 272.188 31.1055C272.443 31.2167 272.76 31.3016 273.136 31.367C273.512 31.4291 273.917 31.4847 274.349 31.5337C274.784 31.5827 275.182 31.671 275.548 31.8017C275.914 31.9324 276.218 32.122 276.467 32.3737C276.712 32.6254 276.836 32.9751 276.836 33.4294C276.836 33.8543 276.748 34.2073 276.568 34.4916C276.388 34.776 276.156 35.0015 275.869 35.1715C275.581 35.3414 275.248 35.4591 274.872 35.5342C274.496 35.6062 274.11 35.6421 273.715 35.6421C273.061 35.6421 272.515 35.5669 272.08 35.4166C271.646 35.2662 271.299 35.0734 271.041 34.8381C270.783 34.6027 270.597 34.338 270.485 34.0438C270.374 33.7497 270.315 33.4621 270.306 33.1843H271.649C271.669 33.4065 271.744 33.5928 271.875 33.7464C272.005 33.9 272.165 34.0275 272.358 34.1223C272.551 34.2171 272.757 34.289 272.979 34.3315C273.202 34.374 273.404 34.4001 273.587 34.4099C273.78 34.4197 273.986 34.4099 274.202 34.374C274.417 34.3413 274.617 34.2857 274.793 34.2138C274.97 34.1419 275.12 34.0471 275.241 33.9327C275.362 33.8183 275.421 33.6712 275.421 33.498C275.421 33.2758 275.297 33.1156 275.045 33.0143C274.793 32.913 274.483 32.828 274.113 32.7626C273.744 32.694 273.339 32.6319 272.907 32.5665C272.473 32.5044 272.071 32.3998 271.701 32.256C271.332 32.1122 271.021 31.903 270.77 31.635C270.518 31.367 270.394 31.0009 270.394 30.5368C270.394 30.161 270.472 29.8374 270.626 29.5628C270.78 29.2883 270.995 29.0628 271.27 28.883C271.544 28.7065 271.871 28.5758 272.254 28.4941C272.633 28.4124 273.051 28.3699 273.502 28.3699C274.081 28.3699 274.568 28.432 274.96 28.5562C275.356 28.6804 275.676 28.8471 275.921 29.0562C276.166 29.2622 276.346 29.4975 276.457 29.7557C276.568 30.0172 276.627 30.2819 276.637 30.5499H275.323L275.316 30.5466Z" fill="#E8FD86"/>
<path d="M284.475 35.5179C284.089 35.5179 283.759 35.4133 283.484 35.2009C283.21 34.9884 283.072 34.6648 283.072 34.2334C282.909 34.6943 282.628 35.0473 282.226 35.2891C281.827 35.531 281.379 35.6683 280.889 35.7075C280.552 35.7271 280.213 35.7009 279.869 35.629C279.526 35.5571 279.216 35.4362 278.938 35.2695C278.66 35.0995 278.431 34.8838 278.251 34.6191C278.072 34.3543 277.974 34.0438 277.954 33.6876C277.934 33.1777 278.016 32.7692 278.199 32.4587C278.382 32.1514 278.624 31.9128 278.921 31.7429C279.219 31.5729 279.559 31.4618 279.931 31.403C280.307 31.3441 280.673 31.3147 281.03 31.3147H283.066V30.5336C283.066 30.1969 282.896 29.9518 282.559 29.7982C282.223 29.6446 281.814 29.5661 281.33 29.5661C280.876 29.5563 280.494 29.638 280.173 29.8112C279.856 29.9845 279.696 30.2459 279.696 30.5924H278.294C278.294 30.1773 278.376 29.8276 278.539 29.5465C278.702 29.2622 278.925 29.0334 279.203 28.8601C279.48 28.6869 279.804 28.5627 280.17 28.4843C280.536 28.4058 280.922 28.3699 281.327 28.3699C281.896 28.3699 282.386 28.4287 282.801 28.5431C283.216 28.6575 283.556 28.8111 283.821 28.9974C284.086 29.1837 284.282 29.406 284.406 29.6544C284.53 29.906 284.596 30.161 284.596 30.4192V33.9164C284.596 34.0602 284.635 34.1779 284.71 34.2694C284.788 34.3609 284.896 34.4066 285.043 34.4066H285.174V35.5179H284.465H284.475ZM279.464 33.3804C279.444 33.583 279.471 33.7595 279.543 33.9164C279.614 34.07 279.719 34.1975 279.853 34.2988C279.987 34.4001 280.15 34.4753 280.337 34.5243C280.526 34.5733 280.719 34.5962 280.922 34.5962C281.134 34.5962 281.35 34.5701 281.572 34.5178C281.794 34.4655 282.004 34.3805 282.2 34.2661C282.396 34.1517 282.572 34.0046 282.726 33.8314C282.88 33.6582 282.991 33.4621 283.059 33.2398V32.2429H281.108C280.954 32.2429 280.785 32.256 280.602 32.2789C280.418 32.3018 280.248 32.3541 280.088 32.4292C279.928 32.5077 279.791 32.6188 279.67 32.7692C279.549 32.9195 279.48 33.1222 279.461 33.3836L279.464 33.3804Z" fill="#E8FD86"/>
<path d="M286.569 28.5234H288.102V30.344C288.266 29.7099 288.53 29.2392 288.897 28.9353C289.263 28.6313 289.71 28.481 290.24 28.481H291.338V29.8668L290.109 29.8798C289.828 29.8798 289.57 29.9387 289.328 30.0531C289.086 30.1675 288.874 30.3243 288.691 30.5237C288.508 30.7198 288.367 30.9519 288.266 31.2166C288.164 31.4814 288.115 31.7592 288.115 32.0468V35.5146H286.569V28.5234Z" fill="#E8FD86"/>
<path d="M292.597 28.5234H294.13V30.344C294.293 29.7099 294.558 29.2392 294.924 28.9353C295.29 28.6313 295.738 28.481 296.267 28.481H297.365V29.8668L296.136 29.8798C295.859 29.8798 295.597 29.9387 295.355 30.0531C295.113 30.1675 294.901 30.3243 294.718 30.5237C294.535 30.7198 294.394 30.9519 294.293 31.2166C294.192 31.4814 294.143 31.7592 294.143 32.0468V35.5146H292.597V28.5234Z" fill="#E8FD86"/>
<path d="M298.055 32.0207C298.055 30.8179 298.388 29.9223 299.058 29.334C299.728 28.7457 300.63 28.4515 301.768 28.4515C302.905 28.4515 303.791 28.7457 304.454 29.334C305.118 29.9223 305.451 30.8179 305.451 32.0207C305.451 32.6547 305.357 33.2005 305.17 33.6516C304.981 34.1059 304.726 34.472 304.396 34.7563C304.069 35.0407 303.677 35.2498 303.225 35.3839C302.771 35.5179 302.287 35.5865 301.768 35.5865C301.248 35.5865 300.761 35.5179 300.31 35.3839C299.859 35.2498 299.463 35.0407 299.133 34.7563C298.8 34.472 298.538 34.1026 298.346 33.6516C298.153 33.2005 298.058 32.6547 298.058 32.0207H298.055ZM301.768 34.2889C302.095 34.2889 302.395 34.2497 302.663 34.1745C302.935 34.0961 303.163 33.9686 303.35 33.7921C303.539 33.6156 303.683 33.3803 303.784 33.0927C303.886 32.8051 303.935 32.4488 303.935 32.0239C303.935 31.599 303.882 31.2297 303.784 30.9388C303.683 30.6512 303.539 30.4191 303.35 30.2459C303.163 30.0727 302.935 29.9485 302.663 29.87C302.392 29.7916 302.095 29.7556 301.768 29.7556C301.441 29.7556 301.143 29.7949 300.879 29.87C300.614 29.9485 300.385 30.0727 300.192 30.2459C299.999 30.4191 299.849 30.6512 299.744 30.9388C299.64 31.2264 299.584 31.5892 299.584 32.0239C299.584 32.4586 299.637 32.8051 299.744 33.0927C299.852 33.3803 299.999 33.6156 300.192 33.7921C300.385 33.9719 300.614 34.0994 300.879 34.1745C301.143 34.253 301.441 34.2889 301.768 34.2889Z" fill="#E8FD86"/>
<path d="M306.955 35.5179V25.1897H308.501V35.5179H306.955Z" fill="#E8FD86"/>
<path d="M310.537 35.5179V25.1897H312.083V35.5179H310.537Z" fill="#E8FD86"/>
<path d="M313.601 32.0207C313.601 30.8179 313.934 29.9223 314.604 29.334C315.274 28.7457 316.176 28.4515 317.314 28.4515C318.451 28.4515 319.337 28.7457 320 29.334C320.664 29.9223 320.997 30.8179 320.997 32.0207C320.997 32.6547 320.902 33.2005 320.716 33.6516C320.527 34.1059 320.272 34.472 319.941 34.7563C319.615 35.0407 319.222 35.2498 318.771 35.3839C318.317 35.5179 317.833 35.5865 317.314 35.5865C316.794 35.5865 316.307 35.5179 315.856 35.3839C315.405 35.2498 315.009 35.0407 314.679 34.7563C314.346 34.472 314.084 34.1026 313.891 33.6516C313.699 33.2005 313.604 32.6547 313.604 32.0207H313.601ZM317.314 34.2889C317.64 34.2889 317.941 34.2497 318.209 34.1745C318.48 34.0961 318.709 33.9686 318.896 33.7921C319.085 33.6156 319.229 33.3803 319.33 33.0927C319.432 32.8051 319.481 32.4488 319.481 32.0239C319.481 31.599 319.428 31.2297 319.33 30.9388C319.229 30.6512 319.085 30.4191 318.896 30.2459C318.709 30.0727 318.48 29.9485 318.209 29.87C317.938 29.7916 317.64 29.7556 317.314 29.7556C316.987 29.7556 316.689 29.7949 316.425 29.87C316.16 29.9485 315.931 30.0727 315.738 30.2459C315.545 30.4191 315.395 30.6512 315.29 30.9388C315.186 31.2264 315.13 31.5892 315.13 32.0239C315.13 32.4586 315.183 32.8051 315.29 33.0927C315.398 33.3803 315.545 33.6156 315.738 33.7921C315.931 33.9719 316.16 34.0994 316.425 34.1745C316.689 34.253 316.987 34.2889 317.314 34.2889Z" fill="#E8FD86"/>
</g>
<defs>
<clipPath id="clip0_3010_83">
<rect width="321" height="48" fill="white"/>
</clipPath>
</defs>
</svg>
