<svg width="321" height="48" viewBox="0 0 321 48" fill="none" xmlns="http://www.w3.org/2000/svg">
<g clip-path="url(#clip0_21_172)">
<path d="M19.1567 1.73879C17.2969 3.46452 15.8555 4.89935 14.8325 6.03676C13.8094 7.17744 12.7112 8.79204 11.5378 10.8871C10.3644 12.9822 9.23353 15.5642 8.14512 18.63C7.35741 20.81 6.67429 22.9312 6.09576 25.0034C5.51724 27.0723 5.05965 29.151 4.72626 31.2363C4.3896 33.3215 4.22291 35.4558 4.22291 37.6326C4.22291 40.8323 4.66743 43.7478 5.55646 46.3789L3.29465 47.3104C2.85994 46.2547 2.39908 44.9375 1.91208 43.3654C1.42507 41.79 0.987089 39.8976 0.5916 37.6849C0.19611 35.4721 0 33.2594 0 31.05C0 27.0102 0.611211 23.3169 1.83363 19.9635C3.05605 16.6134 4.58245 13.6783 6.40954 11.1649C8.23664 8.6515 10.0637 6.53683 11.8908 4.81764C13.7179 3.09846 15.5516 1.51327 17.395 0.0555573L19.1534 1.73879H19.1567Z" fill="#190905"/>
<path d="M34.5906 18.63C34.5906 19.653 34.2932 20.5061 33.6983 21.1924C33.1034 21.8788 32.319 22.222 31.3483 22.222C30.6259 22.222 30.0441 22.0193 29.5996 21.6173C29.1551 21.2153 28.9328 20.6956 28.9328 20.0583C28.9328 19.689 28.9982 19.2445 29.1355 18.7248C29.2858 18.2737 29.361 17.8619 29.361 17.4926C29.361 16.7049 29.0963 16.1721 28.57 15.8976C28.0405 15.6198 27.5274 15.4825 27.024 15.4825C25.5499 15.4825 24.1739 16.2833 22.9024 17.8815C21.6277 19.483 20.6177 21.3689 19.8725 23.5359C19.1273 25.7061 18.7547 27.4874 18.7547 28.8765C18.7547 30.4028 19.1208 31.3736 19.8496 31.7919C20.5785 32.2103 21.327 32.4195 22.0984 32.4195C23.6052 32.4195 24.9812 32.0142 26.22 31.2003C27.4587 30.3865 28.5079 29.4517 29.361 28.396H32.0771C30.8874 30.1904 29.2205 31.805 27.073 33.2464C24.9289 34.6877 22.5298 35.4068 19.8823 35.4068C17.5519 35.4068 15.7509 34.8283 14.4762 33.6713C13.2015 32.5142 12.5641 30.9487 12.5641 28.9713C12.5641 26.6409 13.2342 24.2484 14.5743 21.7938C15.9144 19.3392 17.7741 17.3194 20.1536 15.7342C22.5331 14.149 25.1642 13.358 28.0471 13.358C29.1028 13.358 30.0278 13.5018 30.8253 13.7862C31.6195 14.0705 32.3027 14.4595 32.8746 14.9563C33.4434 15.4498 33.8715 16.0153 34.1559 16.6526C34.4403 17.2899 34.5841 17.9436 34.5841 18.6136L34.5906 18.63Z" fill="#190905"/>
<path d="M47.5862 16.2669C47.5862 20.274 46.9782 23.964 45.7624 27.3403C44.5465 30.7166 43.0234 33.668 41.1865 36.1879C39.3528 38.7112 37.5584 40.7866 35.8065 42.4208C34.0546 44.055 32.1752 45.6663 30.1618 47.2613L28.4262 45.552C30.1193 44.0093 31.5182 42.6267 32.623 41.4043C33.7277 40.1819 34.8652 38.5249 36.0288 36.4396C37.1923 34.3544 38.3298 31.7592 39.4345 28.6608C40.6733 25.242 41.6375 21.9834 42.3239 18.8817C43.0103 15.7799 43.3535 12.7141 43.3535 9.68106C43.3535 8.45867 43.2489 7.04671 43.0397 5.44519C42.8305 3.84366 42.4808 2.34019 41.997 0.931499L44.2589 0C44.5105 0.552363 44.821 1.36947 45.1904 2.45131C45.5597 3.53316 45.9193 4.77189 46.2723 6.17078C46.6253 7.56966 46.9292 9.1483 47.1907 10.91C47.4489 12.6684 47.5797 14.4529 47.5797 16.2637L47.5862 16.2669Z" fill="#190905"/>
<path d="M58.7514 48.0033V9.39344H63.1802L64.0562 13.4594C65.1185 12.018 66.416 10.8936 67.9424 10.0863C69.4688 9.27905 71.1423 8.87703 72.9629 8.87703C74.6429 8.87703 76.2314 9.23656 77.7251 9.95888C79.2188 10.6812 80.5295 11.6486 81.6636 12.8678C82.7978 14.0869 83.6868 15.5185 84.3405 17.1657C84.991 18.813 85.3178 20.5649 85.3178 22.4181C85.3178 24.2713 85.0008 25.9447 84.3667 27.5397C83.7326 29.1347 82.8566 30.5336 81.7421 31.7363C80.6275 32.9391 79.3234 33.8902 77.8297 34.5929C76.336 35.2957 74.7148 35.6486 72.9629 35.6486C71.2109 35.6486 69.5309 35.2793 68.0209 34.5407C66.5108 33.802 65.223 32.7463 64.1608 31.3736V48.0033H58.7547H58.7514ZM64.1575 22.3135C64.1575 23.4476 64.3536 24.5001 64.7491 25.4806C65.1446 26.4579 65.6937 27.3076 66.3964 28.03C67.0992 28.7523 67.9228 29.3177 68.8674 29.7295C69.812 30.1414 70.8318 30.3473 71.93 30.3473C73.0282 30.3473 74.0578 30.1414 75.0188 29.7295C75.9797 29.3177 76.8132 28.7523 77.5159 28.03C78.2186 27.3076 78.7677 26.4611 79.1632 25.4806C79.5587 24.5033 79.7548 23.4476 79.7548 22.3135C79.7548 21.1794 79.5554 20.1171 79.1632 19.1203C78.7677 18.1267 78.2186 17.2573 77.5159 16.5219C76.8132 15.7832 75.9895 15.208 75.0449 14.7961C74.1003 14.3843 73.0642 14.1784 71.93 14.1784C70.7959 14.1784 69.8088 14.3843 68.8674 14.7961C67.9228 15.208 67.0992 15.7832 66.3964 16.5219C65.6937 17.2605 65.1446 18.1267 64.7491 19.1203C64.3536 20.1171 64.1575 21.1794 64.1575 22.3135Z" fill="#190905"/>
<path d="M102.203 14.283C101.824 14.2503 101.481 14.2242 101.173 14.2046C100.863 14.1882 100.556 14.1784 100.245 14.1784C99.4541 14.1784 98.6566 14.2634 97.8526 14.4366C97.0452 14.6098 96.3262 14.9007 95.6888 15.3125C95.0547 15.7244 94.5318 16.2473 94.1199 16.8814C93.7081 17.5155 93.5022 18.2966 93.5022 19.2248V35.1322H88.0961V9.39344H92.5249L93.5022 12.8939V13.4594C93.914 12.8776 94.3258 12.3775 94.7377 11.9657C95.7313 10.9721 96.9439 10.1975 98.3657 9.64838C99.7908 9.09928 101.327 8.84108 102.974 8.87703L102.203 14.283Z" fill="#190905"/>
<path d="M103.386 17.3717C103.386 16.1035 103.635 14.9432 104.131 13.8973C104.628 12.8514 105.324 11.9591 106.217 11.2205C107.109 10.4818 108.174 9.90658 109.41 9.49476C110.645 9.08294 112.018 8.87703 113.528 8.87703C116.856 8.87703 119.448 9.85429 121.301 11.8121C123.154 13.7699 124.082 16.4957 124.082 19.9962V35.1322H119.964L119.088 32.5077C118.091 33.4686 116.882 34.2334 115.46 34.7989C114.035 35.3643 112.535 35.6486 110.956 35.6486C108.21 35.6486 106.014 34.9884 104.367 33.668C102.719 32.3475 101.896 30.5368 101.896 28.2359C101.896 22.7449 107.06 19.8262 117.392 19.483H118.679V19.2771C118.679 15.5381 116.964 13.6653 113.532 13.6653C112.09 13.6653 110.94 14.0084 110.083 14.6948C109.224 15.3812 108.796 16.2735 108.796 17.3717H103.389H103.386ZM118.676 23.2417L116.875 23.294C110.593 23.4313 107.455 25.1309 107.455 28.3895C107.455 29.5236 107.92 30.4747 108.845 31.2461C109.77 32.0174 110.972 32.4031 112.45 32.4031C113.306 32.4031 114.113 32.256 114.868 31.9651C115.623 31.6743 116.284 31.2886 116.849 30.8081C117.415 30.3277 117.862 29.7622 118.189 29.1085C118.516 28.4581 118.679 27.7521 118.679 26.9971V23.2385L118.676 23.2417Z" fill="#190905"/>
<path d="M149.309 9.39344H153.737V33.5895C153.737 38.1882 152.466 41.741 149.926 44.2446C147.387 46.7482 143.818 48.0033 139.219 48.0033C137.124 48.0033 135.143 47.7287 133.273 47.1796C131.404 46.6305 129.557 45.7546 127.74 44.5551L130.057 40.2833C131.603 41.3815 133.11 42.1789 134.587 42.6757C136.061 43.1725 137.539 43.4209 139.016 43.4209C140.493 43.4209 141.693 43.2052 142.827 42.7771C143.961 42.3489 144.939 41.7312 145.762 40.9239C146.586 40.1166 147.22 39.1295 147.668 37.9627C148.112 36.7959 148.338 35.4754 148.338 33.9981V31.1154C147.272 32.5567 145.962 33.6713 144.399 34.4622C142.837 35.2499 141.111 35.6454 139.225 35.6454C137.473 35.6454 135.852 35.3022 134.359 34.6158C132.865 33.9295 131.561 32.9947 130.446 31.8115C129.332 30.6284 128.456 29.2197 127.821 27.5887C127.187 25.9578 126.87 24.2157 126.87 22.3625C126.87 20.5093 127.197 18.7084 127.848 17.0612C128.498 15.4139 129.384 13.9888 130.498 12.7893C131.613 11.5898 132.933 10.6354 134.463 9.93273C135.989 9.23002 137.63 8.87703 139.379 8.87703C141.265 8.87703 142.984 9.27251 144.527 10.0602C146.073 10.8512 147.374 11.9657 148.439 13.4071L149.315 9.39017L149.309 9.39344ZM148.328 22.2122C148.328 21.078 148.122 20.0256 147.71 19.0451C147.299 18.0646 146.74 17.218 146.037 16.4957C145.334 15.7734 144.501 15.208 143.54 14.7961C142.579 14.3843 141.533 14.1784 140.399 14.1784C139.265 14.1784 138.212 14.3843 137.232 14.7961C136.254 15.208 135.411 15.7734 134.708 16.4957C134.006 17.218 133.447 18.0646 133.035 19.0451C132.623 20.0223 132.417 21.078 132.417 22.2122C132.417 23.3463 132.623 24.4086 133.035 25.4054C133.447 26.4023 134.006 27.2684 134.708 28.0038C135.411 28.7425 136.254 29.3177 137.232 29.7295C138.209 30.1414 139.265 30.3473 140.399 30.3473C141.533 30.3473 142.579 30.1414 143.54 29.7295C144.501 29.3177 145.334 28.7523 146.037 28.03C146.74 27.3076 147.299 26.4513 147.71 25.4545C148.122 24.4609 148.328 23.379 148.328 22.2122Z" fill="#190905"/>
<path d="M195.179 35.1322V19.6367C195.179 17.7508 194.587 16.2833 193.404 15.2341C192.221 14.1882 190.632 13.6653 188.642 13.6653C186.547 13.6653 184.942 14.1882 183.827 15.2341C182.713 16.28 182.154 17.6625 182.154 19.3785V35.1322H176.748V19.6367C176.748 17.7508 176.156 16.2833 174.973 15.2341C173.79 14.1882 172.185 13.6653 170.158 13.6653C168.132 13.6653 166.458 14.1882 165.344 15.2341C164.229 16.28 163.67 17.6625 163.67 19.3785V35.1322H158.264V9.39344H162.693L163.67 11.8121C164.563 10.8185 165.635 10.0798 166.887 9.59935C168.139 9.11889 169.622 8.87703 171.338 8.87703C173.502 8.87703 175.372 9.25617 176.95 10.0112C178.529 10.7662 179.765 11.8644 180.657 13.3057C181.549 11.9003 182.759 10.8087 184.285 10.0373C185.811 9.26597 187.622 8.8803 189.717 8.8803C191.329 8.8803 192.806 9.12216 194.146 9.60262C195.486 10.0831 196.627 10.7596 197.568 11.6356C198.513 12.5115 199.248 13.5672 199.781 14.8027C200.314 16.0381 200.578 17.4272 200.578 18.9732V35.1388H195.172L195.179 35.1322Z" fill="#190905"/>
<path d="M204.651 17.3717C204.651 16.1035 204.899 14.9432 205.396 13.8973C205.893 12.8514 206.589 11.9591 207.481 11.2205C208.374 10.4818 209.439 9.90658 210.675 9.49476C211.91 9.08294 213.283 8.87703 214.793 8.87703C218.12 8.87703 220.712 9.85429 222.566 11.8121C224.419 13.7699 225.347 16.4957 225.347 19.9962V35.1322H221.229L220.353 32.5077C219.356 33.4686 218.147 34.2334 216.725 34.7989C215.3 35.3643 213.8 35.6486 212.221 35.6486C209.475 35.6486 207.279 34.9884 205.632 33.668C203.984 32.3475 203.161 30.5368 203.161 28.2359C203.161 22.7449 208.325 19.8262 218.657 19.483H219.944V19.2771C219.944 15.5381 218.228 13.6653 214.796 13.6653C213.355 13.6653 212.204 14.0084 211.348 14.6948C210.489 15.3812 210.06 16.2735 210.06 17.3717H204.654H204.651ZM219.941 23.2417L218.14 23.294C211.858 23.4313 208.72 25.1309 208.72 28.3895C208.72 29.5236 209.184 30.4747 210.109 31.2461C211.034 32.0174 212.237 32.4031 213.715 32.4031C214.571 32.4031 215.378 32.256 216.133 31.9651C216.888 31.6743 217.548 31.2886 218.114 30.8081C218.679 30.3277 219.127 29.7622 219.454 29.1085C219.781 28.4581 219.944 27.7521 219.944 26.9971V23.2385L219.941 23.2417Z" fill="#190905"/>
<path d="M244.125 17.9077C244.442 17.9077 244.752 17.8815 245.05 17.8292C245.347 17.7769 245.628 17.6887 245.886 17.5612C246.148 17.437 246.383 17.2736 246.596 17.071C246.808 16.8683 246.981 16.6199 247.115 16.3192L248.805 16.3323C248.671 16.852 248.446 17.2965 248.125 17.6691C247.808 18.0384 247.432 18.3424 247.004 18.5777C246.576 18.813 246.112 18.9895 245.609 19.1039C245.109 19.2183 244.612 19.2771 244.121 19.2771C243.448 19.2771 242.808 19.1856 242.2 19.0026C241.592 18.8196 241.065 18.5385 240.618 18.1561C240.17 17.7769 239.814 17.2932 239.549 16.7049C239.284 16.1166 239.15 15.4139 239.15 14.5968C239.15 13.7797 239.281 13.0279 239.549 12.4363C239.814 11.8447 240.17 11.361 240.618 10.9852C241.065 10.6093 241.592 10.3347 242.2 10.1615C242.808 9.98829 243.448 9.90004 244.121 9.90004C244.71 9.90004 245.272 9.96868 245.811 10.1092C246.351 10.2498 246.831 10.4557 247.256 10.7302C247.681 11.0048 248.037 11.3479 248.325 11.763C248.612 12.1781 248.805 12.6586 248.903 13.2077H247.256C247.142 12.8514 246.985 12.5507 246.785 12.3056C246.589 12.0605 246.351 11.8611 246.076 11.7075C245.801 11.5539 245.501 11.4427 245.174 11.3741C244.847 11.3055 244.494 11.2728 244.118 11.2728C243.648 11.2728 243.203 11.3283 242.788 11.4395C242.373 11.5506 242.017 11.7369 241.719 11.9951C241.422 12.2566 241.183 12.5965 241.01 13.0214C240.837 13.4463 240.748 13.9692 240.748 14.5968C240.748 15.2243 240.837 15.7015 241.01 16.1198C241.183 16.5382 241.418 16.8814 241.719 17.1461C242.017 17.4109 242.373 17.6037 242.788 17.7246C243.203 17.8456 243.644 17.9044 244.118 17.9044L244.125 17.9077Z" fill="#190905"/>
<path d="M249.671 15.6819C249.671 14.4791 250.005 13.5836 250.675 12.9952C251.345 12.4069 252.247 12.1128 253.384 12.1128C254.522 12.1128 255.408 12.4069 256.071 12.9952C256.735 13.5836 257.068 14.4791 257.068 15.6819C257.068 16.3159 256.973 16.8618 256.787 17.3128C256.601 17.7671 256.342 18.1332 256.016 18.4175C255.689 18.7019 255.296 18.9111 254.845 19.0451C254.391 19.1791 253.907 19.2477 253.388 19.2477C252.868 19.2477 252.381 19.1791 251.93 19.0451C251.476 18.9111 251.083 18.7019 250.753 18.4175C250.42 18.1332 250.158 17.7639 249.966 17.3128C249.773 16.8618 249.678 16.3159 249.678 15.6819H249.671ZM253.384 17.9502C253.711 17.9502 254.012 17.9109 254.28 17.8358C254.548 17.7573 254.777 17.6299 254.966 17.4534C255.153 17.2769 255.3 17.0415 255.401 16.7539C255.502 16.4663 255.551 16.11 255.551 15.6851C255.551 15.2602 255.502 14.8909 255.401 14.6C255.3 14.3124 255.156 14.0804 254.966 13.9071C254.777 13.7339 254.551 13.6097 254.28 13.5313C254.009 13.4528 253.711 13.4169 253.384 13.4169C253.058 13.4169 252.76 13.4561 252.495 13.5313C252.231 13.6097 252.002 13.7339 251.809 13.9071C251.616 14.0804 251.466 14.3124 251.361 14.6C251.257 14.8877 251.201 15.2504 251.201 15.6851C251.201 16.1198 251.253 16.4663 251.361 16.7539C251.466 17.0415 251.616 17.2769 251.809 17.4534C252.002 17.6331 252.231 17.7606 252.495 17.8358C252.76 17.9142 253.058 17.9502 253.384 17.9502Z" fill="#190905"/>
<path d="M258.585 19.1791V12.1879H260.088V13.9496C260.183 13.7372 260.304 13.528 260.441 13.3221C260.582 13.1162 260.745 12.9266 260.931 12.7599C261.121 12.5899 261.33 12.4494 261.559 12.335C261.791 12.2206 262.046 12.152 262.324 12.1324C262.585 12.103 262.847 12.1193 263.111 12.1749C263.376 12.2304 263.625 12.3317 263.857 12.4723C264.089 12.6128 264.295 12.7959 264.478 13.0214C264.661 13.2469 264.801 13.5149 264.896 13.8221C265.069 13.4953 265.249 13.224 265.432 13.005C265.615 12.7893 265.808 12.6161 266.011 12.4854C266.213 12.3546 266.429 12.2598 266.661 12.2043C266.893 12.1454 267.138 12.116 267.396 12.116C267.867 12.1062 268.279 12.1716 268.632 12.3121C268.985 12.4527 269.276 12.6553 269.514 12.9266C269.75 13.1979 269.93 13.5182 270.051 13.894C270.171 14.2699 270.23 14.6948 270.23 15.1655V19.1823H268.684V15.3093C268.684 14.77 268.563 14.3255 268.325 13.9725C268.083 13.6195 267.671 13.4463 267.083 13.4463C266.429 13.4463 265.949 13.6097 265.645 13.9365C265.341 14.2634 265.19 14.7373 265.19 15.3518V19.1791H263.644V15.306C263.644 15.038 263.615 14.7896 263.559 14.5608C263.5 14.3353 263.409 14.1359 263.278 13.9692C263.147 13.7993 262.981 13.6718 262.778 13.5803C262.575 13.4888 262.327 13.443 262.026 13.443C261.382 13.443 260.905 13.6456 260.595 14.0509C260.287 14.4562 260.131 14.9595 260.131 15.5675V19.1791H258.585Z" fill="#190905"/>
<path d="M272.123 22.1697V12.1716H273.626V13.8025C273.715 13.5999 273.839 13.3972 274.002 13.1946C274.166 12.992 274.355 12.8122 274.564 12.652C274.777 12.4919 275.006 12.3644 275.257 12.2696C275.509 12.1749 275.764 12.1193 276.022 12.1095C276.512 12.0899 276.973 12.1651 277.401 12.335C277.83 12.505 278.199 12.7436 278.506 13.0508C278.813 13.358 279.059 13.7372 279.235 14.1849C279.412 14.6327 279.503 15.1328 279.503 15.6819C279.503 16.2015 279.425 16.6787 279.264 17.1134C279.104 17.5481 278.882 17.9207 278.591 18.2345C278.304 18.5483 277.951 18.7934 277.535 18.9699C277.12 19.1497 276.659 19.2412 276.15 19.251C275.878 19.2608 275.614 19.2183 275.355 19.1202C275.097 19.0222 274.855 18.898 274.633 18.7444C274.411 18.5908 274.215 18.4143 274.048 18.2182C273.878 18.0221 273.751 17.826 273.666 17.6331V22.1697H272.12H272.123ZM275.793 17.9502C276.12 17.9502 276.418 17.8913 276.682 17.7704C276.947 17.6495 277.173 17.4893 277.362 17.2867C277.552 17.084 277.696 16.8454 277.797 16.5709C277.898 16.2963 277.947 15.9989 277.947 15.6819C277.947 15.3648 277.898 15.0641 277.797 14.7863C277.696 14.5085 277.552 14.2666 277.362 14.064C277.176 13.8614 276.947 13.7045 276.682 13.5868C276.418 13.4724 276.12 13.4136 275.793 13.4136C275.466 13.4136 275.185 13.4724 274.921 13.5934C274.656 13.7143 274.43 13.8744 274.241 14.0771C274.054 14.2797 273.907 14.5183 273.806 14.7929C273.705 15.0674 273.656 15.3648 273.656 15.6819C273.656 15.9989 273.705 16.2963 273.806 16.5709C273.907 16.8454 274.051 17.084 274.241 17.2867C274.43 17.4893 274.653 17.6495 274.914 17.7704C275.176 17.8913 275.466 17.9502 275.797 17.9502H275.793Z" fill="#190905"/>
<path d="M281.065 19.1791V8.85088H282.611V19.1791H281.065Z" fill="#190905"/>
<path d="M284.448 10.5112C284.448 10.289 284.537 10.0831 284.716 9.89024C284.893 9.6974 285.138 9.60262 285.445 9.60262C285.752 9.60262 285.985 9.69086 286.168 9.86409C286.351 10.0373 286.442 10.2432 286.442 10.4851C286.442 10.727 286.357 10.9427 286.184 11.1355C286.011 11.3283 285.766 11.4231 285.448 11.4231C285.131 11.4231 284.896 11.3316 284.72 11.1486C284.543 10.9655 284.452 10.7531 284.452 10.5145L284.448 10.5112ZM284.664 19.1791V12.1879H286.21V19.1791H284.664Z" fill="#190905"/>
<path d="M294.27 19.1791C293.884 19.1791 293.554 19.0745 293.28 18.862C293.005 18.6496 292.868 18.326 292.868 17.8946C292.705 18.3554 292.423 18.7084 292.021 18.9503C291.623 19.1922 291.175 19.3294 290.685 19.3687C290.348 19.3883 290.008 19.3621 289.665 19.2902C289.322 19.2183 289.011 19.0974 288.733 18.9307C288.455 18.7607 288.227 18.545 288.047 18.2803C287.867 18.0155 287.769 17.705 287.749 17.3488C287.73 16.8389 287.812 16.4303 287.995 16.1198C288.178 15.8126 288.42 15.574 288.717 15.4041C289.014 15.2341 289.354 15.123 289.727 15.0641C290.103 15.0053 290.469 14.9759 290.825 14.9759H292.861V14.1947C292.861 13.8581 292.691 13.613 292.355 13.4594C292.018 13.3057 291.61 13.2273 291.126 13.2273C290.672 13.2175 290.289 13.2992 289.969 13.4724C289.652 13.6457 289.492 13.9071 289.492 14.2536H288.089C288.089 13.8385 288.171 13.4888 288.335 13.2077C288.498 12.9233 288.72 12.6945 288.998 12.5213C289.276 12.3481 289.599 12.2239 289.966 12.1454C290.332 12.067 290.717 12.0311 291.123 12.0311C291.691 12.0311 292.182 12.0899 292.597 12.2043C293.012 12.3187 293.352 12.4723 293.616 12.6586C293.881 12.8449 294.077 13.0671 294.202 13.3155C294.326 13.5672 294.391 13.8221 294.391 14.0804V17.5776C294.391 17.7214 294.43 17.839 294.505 17.9305C294.584 18.0221 294.692 18.0678 294.839 18.0678H294.97V19.1791H294.26H294.27ZM289.26 17.0415C289.24 17.2442 289.266 17.4207 289.338 17.5776C289.41 17.7312 289.514 17.8586 289.648 17.96C289.782 18.0613 289.946 18.1365 290.132 18.1855C290.322 18.2345 290.515 18.2574 290.717 18.2574C290.93 18.2574 291.145 18.2312 291.368 18.1789C291.59 18.1267 291.799 18.0417 291.995 17.9273C292.191 17.8129 292.368 17.6658 292.522 17.4926C292.675 17.3194 292.786 17.1232 292.855 16.901V15.9041H290.904C290.75 15.9041 290.58 15.9172 290.397 15.9401C290.214 15.963 290.044 16.0153 289.884 16.0904C289.724 16.1689 289.586 16.28 289.465 16.4303C289.345 16.5807 289.276 16.7833 289.256 17.0448L289.26 17.0415Z" fill="#190905"/>
<path d="M296.411 19.1791V12.1716H297.915V14.0052C298.029 13.6979 298.186 13.4267 298.379 13.1881C298.571 12.9527 298.777 12.7534 299 12.5965C299.222 12.4363 299.454 12.3187 299.699 12.237C299.944 12.1552 300.183 12.1128 300.415 12.1128C300.935 12.103 301.373 12.1781 301.729 12.3383C302.085 12.4984 302.373 12.7141 302.588 12.9887C302.804 13.2632 302.961 13.5868 303.059 13.9627C303.154 14.3385 303.203 14.7373 303.203 15.1622V19.1791H301.657V15.306C301.657 14.7275 301.523 14.2732 301.252 13.9398C300.98 13.6064 300.552 13.4397 299.967 13.4397C299.304 13.4397 298.8 13.6326 298.464 14.0182C298.127 14.4039 297.957 14.9203 297.957 15.5642V19.1758H296.411V19.1791Z" fill="#190905"/>
<path d="M308.315 17.9502C308.557 17.9502 308.786 17.9305 309.008 17.8913C309.23 17.8521 309.433 17.7835 309.616 17.6821C309.799 17.5808 309.956 17.4468 310.087 17.2769C310.217 17.1069 310.312 16.8977 310.368 16.6493L311.943 16.6362C311.858 17.1167 311.704 17.5253 311.489 17.8586C311.273 18.192 311.002 18.46 310.678 18.6692C310.355 18.8751 309.995 19.0255 309.593 19.117C309.194 19.2085 308.766 19.2543 308.315 19.2543C307.795 19.2543 307.308 19.1856 306.857 19.0516C306.403 18.9176 306.011 18.7084 305.681 18.4241C305.347 18.1397 305.086 17.7704 304.893 17.3193C304.7 16.8683 304.605 16.3225 304.605 15.6884C304.605 14.4856 304.939 13.5901 305.609 13.0018C306.279 12.4135 307.181 12.1193 308.318 12.1193C309.456 12.1193 310.27 12.3612 310.855 12.8482C311.436 13.3351 311.809 14.0248 311.976 14.9203L310.443 14.9334C310.338 14.3549 310.096 13.9594 309.72 13.7404C309.345 13.5214 308.877 13.4169 308.318 13.4169C307.991 13.4169 307.694 13.4561 307.429 13.5313C307.164 13.6097 306.936 13.7339 306.743 13.9071C306.55 14.0803 306.4 14.3124 306.295 14.6C306.19 14.8876 306.135 15.2504 306.135 15.6851C306.135 16.1198 306.187 16.4663 306.295 16.7539C306.403 17.0415 306.55 17.2769 306.743 17.4534C306.936 17.6331 307.164 17.7606 307.429 17.8358C307.694 17.9142 307.991 17.9502 308.318 17.9502H308.315Z" fill="#190905"/>
<path d="M319.915 16.8814C319.866 17.3357 319.745 17.7083 319.552 18.009C319.359 18.3064 319.111 18.545 318.807 18.7182C318.503 18.8915 318.153 19.0124 317.751 19.081C317.352 19.1497 316.921 19.1823 316.457 19.1823C315.908 19.1823 315.414 19.1039 314.976 18.9438C314.538 18.7836 314.166 18.5581 313.855 18.2639C313.548 17.9698 313.309 17.6102 313.139 17.1788C312.969 16.7506 312.888 16.2669 312.888 15.7276C312.888 15.2929 312.95 14.8615 313.077 14.4268C313.201 13.9921 313.411 13.6064 313.698 13.2632C313.986 12.9201 314.371 12.6422 314.845 12.4265C315.323 12.2108 315.908 12.103 316.601 12.103C317.179 12.103 317.686 12.1977 318.117 12.384C318.552 12.5703 318.911 12.8383 319.202 13.1848C319.49 13.5313 319.702 13.9463 319.836 14.4268C319.97 14.9073 320.029 15.4433 320.01 16.0316H314.391C314.401 16.6101 314.607 17.0742 315.006 17.4272C315.404 17.7802 315.924 17.9534 316.558 17.9534C316.973 17.9534 317.303 17.9142 317.548 17.839C317.794 17.7606 317.983 17.6691 318.12 17.5579C318.254 17.4468 318.349 17.3292 318.402 17.205C318.454 17.0808 318.496 16.9729 318.526 16.8879H319.912L319.915 16.8814ZM318.571 15.2047C318.552 14.9628 318.503 14.734 318.421 14.5183C318.339 14.3026 318.215 14.1098 318.052 13.9398C317.888 13.7698 317.682 13.6391 317.431 13.5411C317.179 13.4463 316.872 13.3972 316.506 13.3972C316.199 13.3972 315.917 13.4463 315.669 13.5476C315.417 13.6489 315.202 13.7829 315.019 13.9529C314.836 14.1228 314.692 14.3124 314.584 14.5314C314.476 14.7504 314.42 14.9726 314.411 15.2047H318.571Z" fill="#190905"/>
<path d="M244.89 34.9132C244.573 35.1551 244.226 35.3381 243.85 35.4689C243.474 35.5996 243.069 35.665 242.638 35.665C241.49 35.665 240.621 35.4133 240.029 34.9067C239.438 34.4001 239.14 33.7137 239.14 32.8476C239.14 32.5208 239.193 32.2266 239.3 31.9651C239.408 31.7037 239.552 31.4716 239.735 31.2657C239.918 31.0598 240.131 30.8702 240.369 30.7035C240.611 30.5336 240.866 30.3799 241.134 30.2329C240.922 29.9551 240.725 29.6511 240.549 29.3242C240.369 28.9974 240.281 28.651 240.281 28.2849C240.281 27.9482 240.346 27.6508 240.477 27.3959C240.608 27.1409 240.784 26.9252 241.003 26.7455C241.226 26.569 241.484 26.4317 241.775 26.3402C242.069 26.2487 242.379 26.2029 242.706 26.2029C243.013 26.2029 243.308 26.2454 243.589 26.3336C243.867 26.4219 244.112 26.5428 244.318 26.703C244.523 26.8631 244.69 27.056 244.814 27.2815C244.939 27.507 245.001 27.7619 245.001 28.0398C245.001 28.3568 244.942 28.6346 244.821 28.8699C244.7 29.1053 244.54 29.3177 244.337 29.5073C244.135 29.6936 243.906 29.8635 243.651 30.0139C243.396 30.1642 243.134 30.3113 242.863 30.4551L244.929 33.011C245.161 32.5012 245.275 31.9128 245.275 31.2493H246.517C246.537 32.3279 246.282 33.2562 245.752 34.0373L246.965 35.5244H245.36L244.883 34.9165L244.89 34.9132ZM241.784 31.0271C241.418 31.2493 241.114 31.5076 240.876 31.7984C240.634 32.0926 240.516 32.4652 240.516 32.9195C240.516 33.132 240.559 33.3379 240.647 33.5405C240.735 33.7432 240.863 33.9196 241.036 34.0667C241.209 34.2171 241.425 34.338 241.68 34.4263C241.935 34.5178 242.236 34.5635 242.582 34.5635C243.2 34.5635 243.729 34.387 244.17 34.0275L241.788 31.0238L241.784 31.0271ZM242.245 29.6707C242.448 29.5661 242.641 29.4583 242.824 29.3537C243.007 29.2491 243.167 29.1347 243.308 29.0138C243.448 28.8928 243.559 28.7621 243.641 28.615C243.723 28.4712 243.765 28.3078 243.765 28.1247C243.765 27.8731 243.651 27.6802 243.419 27.5397C243.187 27.3992 242.932 27.3305 242.654 27.3305C242.383 27.3207 242.144 27.3861 241.932 27.5266C241.719 27.6672 241.615 27.8861 241.615 28.1836C241.615 28.445 241.683 28.7098 241.817 28.9778C241.951 29.2491 242.095 29.4779 242.252 29.6707H242.245Z" fill="#190905"/>
<path d="M252.041 35.5212V26.3467H256.463C257.176 26.3467 257.813 26.4513 258.379 26.6638C258.941 26.8762 259.421 27.1802 259.817 27.5822C260.212 27.9809 260.513 28.4647 260.719 29.0268C260.925 29.589 261.029 30.2296 261.029 30.9421C261.029 31.6546 260.925 32.2789 260.712 32.8411C260.5 33.4032 260.196 33.887 259.794 34.2857C259.395 34.6845 258.911 34.9917 258.343 35.2041C257.774 35.4166 257.133 35.5212 256.421 35.5212H252.044H252.041ZM253.646 34.1779H256.349C257.313 34.1779 258.065 33.9066 258.611 33.3608C259.153 32.8182 259.428 32.0109 259.428 30.9421C259.428 29.8734 259.15 29.0628 258.591 28.5137C258.032 27.9646 257.277 27.69 256.323 27.69H253.649V34.1779H253.646Z" fill="#190905"/>
<path d="M268.946 33.2235C268.897 33.6778 268.776 34.0504 268.583 34.3511C268.39 34.6485 268.142 34.8871 267.838 35.0603C267.534 35.2336 267.184 35.3545 266.782 35.4231C266.383 35.4918 265.952 35.5244 265.488 35.5244C264.939 35.5244 264.445 35.446 264.007 35.2859C263.569 35.1257 263.196 34.9002 262.886 34.606C262.579 34.3119 262.34 33.9523 262.17 33.5209C262 33.0927 261.918 32.609 261.918 32.0697C261.918 31.635 261.981 31.2036 262.108 30.7689C262.232 30.3342 262.441 29.9485 262.729 29.6053C263.017 29.2622 263.402 28.9843 263.876 28.7686C264.353 28.5529 264.939 28.4451 265.631 28.4451C266.21 28.4451 266.717 28.5398 267.148 28.7261C267.583 28.9124 267.942 29.1804 268.233 29.5269C268.521 29.8734 268.733 30.2884 268.867 30.7689C269.001 31.2494 269.06 31.7854 269.041 32.3737H263.422C263.432 32.9522 263.638 33.4163 264.036 33.7693C264.435 34.1223 264.955 34.2955 265.589 34.2955C266.004 34.2955 266.334 34.2563 266.579 34.1811C266.824 34.1027 267.014 34.0112 267.151 33.9C267.285 33.7889 267.38 33.6713 267.432 33.5471C267.485 33.4229 267.527 33.315 267.557 33.23H268.942L268.946 33.2235ZM267.602 31.5468C267.583 31.3049 267.534 31.0761 267.452 30.8604C267.37 30.6447 267.246 30.4519 267.083 30.2819C266.919 30.1119 266.713 29.9812 266.462 29.8832C266.21 29.7884 265.903 29.7393 265.537 29.7393C265.229 29.7393 264.948 29.7884 264.7 29.8897C264.448 29.991 264.233 30.125 264.05 30.295C263.866 30.4649 263.723 30.6545 263.615 30.8735C263.507 31.0925 263.451 31.3147 263.442 31.5468H267.602Z" fill="#190905"/>
<path d="M275.316 30.5499C275.306 30.3277 275.231 30.1512 275.094 30.0237C274.953 29.893 274.787 29.7982 274.587 29.7361C274.391 29.674 274.182 29.6315 273.966 29.6119C273.75 29.5923 273.558 29.5825 273.394 29.5825C273.182 29.5825 272.979 29.6021 272.786 29.6413C272.593 29.6805 272.423 29.7361 272.273 29.8145C272.123 29.893 272.005 29.9877 271.92 30.1021C271.835 30.2165 271.789 30.3538 271.789 30.5074V30.5662C271.799 30.8179 271.93 30.9977 272.188 31.1088C272.443 31.2199 272.76 31.3049 273.136 31.3703C273.512 31.4324 273.917 31.4879 274.349 31.537C274.783 31.586 275.182 31.6742 275.548 31.805C275.914 31.9357 276.218 32.1253 276.467 32.377C276.712 32.6286 276.836 32.9783 276.836 33.4326C276.836 33.8575 276.748 34.2105 276.568 34.4949C276.388 34.7792 276.156 35.0048 275.868 35.1747C275.581 35.3447 275.247 35.4623 274.872 35.5375C274.496 35.6094 274.11 35.6454 273.715 35.6454C273.061 35.6454 272.515 35.5702 272.08 35.4198C271.646 35.2695 271.299 35.0767 271.041 34.8413C270.783 34.606 270.596 34.3413 270.485 34.0471C270.374 33.753 270.315 33.4653 270.305 33.1875H271.649C271.668 33.4098 271.744 33.5961 271.874 33.7497C272.005 33.9033 272.165 34.0308 272.358 34.1256C272.551 34.2203 272.757 34.2922 272.979 34.3347C273.201 34.3772 273.404 34.4034 273.587 34.4132C273.78 34.423 273.986 34.4132 274.202 34.3772C274.417 34.3445 274.617 34.289 274.793 34.2171C274.97 34.1452 275.12 34.0504 275.241 33.936C275.362 33.8216 275.421 33.6745 275.421 33.5013C275.421 33.279 275.296 33.1189 275.045 33.0176C274.793 32.9162 274.483 32.8313 274.113 32.7659C273.744 32.6973 273.339 32.6352 272.907 32.5698C272.473 32.5077 272.07 32.4031 271.701 32.2593C271.332 32.1155 271.021 31.9063 270.77 31.6383C270.518 31.3703 270.394 31.0042 270.394 30.5401C270.394 30.1642 270.472 29.8407 270.626 29.5661C270.779 29.2916 270.995 29.066 271.27 28.8863C271.544 28.7098 271.871 28.579 272.254 28.4973C272.633 28.4156 273.051 28.3731 273.502 28.3731C274.081 28.3731 274.568 28.4352 274.96 28.5594C275.355 28.6836 275.676 28.8503 275.921 29.0595C276.166 29.2654 276.346 29.5007 276.457 29.7589C276.568 30.0204 276.627 30.2852 276.637 30.5532H275.323L275.316 30.5499Z" fill="#190905"/>
<path d="M284.474 35.5212C284.089 35.5212 283.759 35.4166 283.484 35.2041C283.21 34.9917 283.072 34.6681 283.072 34.2367C282.909 34.6975 282.628 35.0505 282.226 35.2924C281.827 35.5342 281.379 35.6715 280.889 35.7107C280.552 35.7303 280.212 35.7042 279.869 35.6323C279.526 35.5604 279.215 35.4395 278.938 35.2728C278.66 35.1028 278.431 34.8871 278.251 34.6224C278.071 34.3576 277.973 34.0471 277.954 33.6909C277.934 33.181 278.016 32.7724 278.199 32.4619C278.382 32.1547 278.624 31.9161 278.921 31.7461C279.219 31.5762 279.559 31.4651 279.931 31.4062C280.307 31.3474 280.673 31.318 281.029 31.318H283.066V30.5368C283.066 30.2002 282.896 29.9551 282.559 29.8014C282.222 29.6478 281.814 29.5694 281.33 29.5694C280.876 29.5596 280.493 29.6413 280.173 29.8145C279.856 29.9877 279.696 30.2492 279.696 30.5957H278.294C278.294 30.1806 278.375 29.8309 278.539 29.5498C278.702 29.2654 278.925 29.0366 279.202 28.8634C279.48 28.6902 279.804 28.566 280.17 28.4875C280.536 28.4091 280.922 28.3731 281.327 28.3731C281.896 28.3731 282.386 28.432 282.801 28.5464C283.216 28.6608 283.556 28.8144 283.821 29.0007C284.085 29.187 284.282 29.4092 284.406 29.6576C284.53 29.9093 284.595 30.1642 284.595 30.4224V33.9196C284.595 34.0635 284.635 34.1811 284.71 34.2726C284.788 34.3641 284.896 34.4099 285.043 34.4099H285.174V35.5212H284.465H284.474ZM279.464 33.3836C279.444 33.5863 279.47 33.7628 279.542 33.9196C279.614 34.0733 279.719 34.2007 279.853 34.3021C279.987 34.4034 280.15 34.4785 280.337 34.5276C280.526 34.5766 280.719 34.5995 280.922 34.5995C281.134 34.5995 281.35 34.5733 281.572 34.521C281.794 34.4687 282.003 34.3838 282.2 34.2694C282.396 34.155 282.572 34.0079 282.726 33.8347C282.879 33.6614 282.991 33.4653 283.059 33.2431V32.2462H281.108C280.954 32.2462 280.784 32.2593 280.601 32.2822C280.418 32.305 280.248 32.3573 280.088 32.4325C279.928 32.511 279.791 32.6221 279.67 32.7724C279.549 32.9228 279.48 33.1254 279.461 33.3869L279.464 33.3836Z" fill="#190905"/>
<path d="M286.57 28.5268H288.103V30.3473C288.266 29.7132 288.531 29.2425 288.897 28.9386C289.263 28.6346 289.711 28.4843 290.24 28.4843H291.338V29.8701L290.109 29.8832C289.828 29.8832 289.57 29.942 289.328 30.0564C289.086 30.1708 288.874 30.3277 288.691 30.527C288.508 30.7231 288.367 30.9552 288.266 31.2199C288.165 31.4847 288.116 31.7625 288.116 32.0501V35.5179H286.57V28.5268Z" fill="#190905"/>
<path d="M292.597 28.5268H294.13V30.3473C294.293 29.7132 294.558 29.2425 294.924 28.9386C295.29 28.6346 295.738 28.4843 296.267 28.4843H297.365V29.8701L296.136 29.8832C295.859 29.8832 295.597 29.942 295.355 30.0564C295.113 30.1708 294.901 30.3277 294.718 30.527C294.535 30.7231 294.394 30.9552 294.293 31.2199C294.192 31.4847 294.143 31.7625 294.143 32.0501V35.5179H292.597V28.5268Z" fill="#190905"/>
<path d="M298.055 32.024C298.055 30.8212 298.388 29.9257 299.059 29.3373C299.729 28.749 300.631 28.4549 301.768 28.4549C302.906 28.4549 303.791 28.749 304.455 29.3373C305.118 29.9257 305.452 30.8212 305.452 32.024C305.452 32.6581 305.357 33.2039 305.171 33.6549C304.981 34.1092 304.726 34.4753 304.396 34.7596C304.069 35.044 303.677 35.2532 303.226 35.3872C302.772 35.5212 302.288 35.5898 301.768 35.5898C301.248 35.5898 300.761 35.5212 300.31 35.3872C299.859 35.2532 299.464 35.044 299.134 34.7596C298.8 34.4753 298.539 34.106 298.346 33.6549C298.153 33.2039 298.058 32.6581 298.058 32.024H298.055ZM301.768 34.2923C302.095 34.2923 302.396 34.253 302.664 34.1779C302.935 34.0994 303.164 33.972 303.35 33.7955C303.54 33.619 303.683 33.3836 303.785 33.096C303.886 32.8084 303.935 32.4521 303.935 32.0272C303.935 31.6024 303.883 31.233 303.785 30.9421C303.683 30.6545 303.54 30.4225 303.35 30.2492C303.164 30.076 302.935 29.9518 302.664 29.8734C302.392 29.7949 302.095 29.759 301.768 29.759C301.441 29.759 301.144 29.7982 300.879 29.8734C300.614 29.9518 300.386 30.076 300.193 30.2492C300 30.4225 299.85 30.6545 299.745 30.9421C299.64 31.2298 299.585 31.5925 299.585 32.0272C299.585 32.4619 299.637 32.8084 299.745 33.096C299.853 33.3836 300 33.619 300.193 33.7955C300.386 33.9752 300.614 34.1027 300.879 34.1779C301.144 34.2563 301.441 34.2923 301.768 34.2923Z" fill="#190905"/>
<path d="M306.955 35.5212V25.193H308.501V35.5212H306.955Z" fill="#190905"/>
<path d="M310.538 35.5212V25.193H312.084V35.5212H310.538Z" fill="#190905"/>
<path d="M313.6 32.024C313.6 30.8212 313.933 29.9257 314.604 29.3373C315.274 28.749 316.176 28.4549 317.313 28.4549C318.451 28.4549 319.336 28.749 320 29.3373C320.663 29.9257 320.997 30.8212 320.997 32.024C320.997 32.6581 320.902 33.2039 320.716 33.6549C320.526 34.1092 320.271 34.4753 319.941 34.7596C319.614 35.044 319.222 35.2532 318.771 35.3872C318.317 35.5212 317.833 35.5898 317.313 35.5898C316.793 35.5898 316.306 35.5212 315.855 35.3872C315.404 35.2532 315.009 35.044 314.679 34.7596C314.345 34.4753 314.084 34.106 313.891 33.6549C313.698 33.2039 313.603 32.6581 313.603 32.024H313.6ZM317.313 34.2923C317.64 34.2923 317.941 34.253 318.209 34.1779C318.48 34.0994 318.709 33.972 318.895 33.7955C319.085 33.619 319.228 33.3836 319.33 33.096C319.431 32.8084 319.48 32.4521 319.48 32.0272C319.48 31.6024 319.428 31.233 319.33 30.9421C319.228 30.6545 319.085 30.4225 318.895 30.2492C318.709 30.076 318.48 29.9518 318.209 29.8734C317.937 29.7949 317.64 29.759 317.313 29.759C316.986 29.759 316.689 29.7982 316.424 29.8734C316.159 29.9518 315.931 30.076 315.738 30.2492C315.545 30.4225 315.395 30.6545 315.29 30.9421C315.185 31.2298 315.13 31.5925 315.13 32.0272C315.13 32.4619 315.182 32.8084 315.29 33.096C315.398 33.3836 315.545 33.619 315.738 33.7955C315.931 33.9752 316.159 34.1027 316.424 34.1779C316.689 34.2563 316.986 34.2923 317.313 34.2923Z" fill="#190905"/>
</g>
<defs>
<clipPath id="clip0_21_172">
<rect width="320.997" height="48.0033" fill="white"/>
</clipPath>
</defs>
</svg>
